<?xml version="1.0" encoding="UTF-8"?>
<svg width="96px" height="107px" viewBox="0 0 96 107" version="1.1" xmlns="http://www.w3.org/2000/svg" xmlns:xlink="http://www.w3.org/1999/xlink">
    <!-- Generator: Sketch 57.1 (83088) - https://sketch.com -->
    <title>Illustrator</title>
    <desc>Created with Sketch.</desc>
    <g id="Page-1" stroke="none" stroke-width="1" fill="none" fill-rule="evenodd">
        <g id="Artboard" transform="translate(-1086.000000, -128.000000)">
            <g id="Illustrator" transform="translate(1086.000000, 128.000000)">
                <polygon id="Shape-Copy-6" fill="#D07012" fill-rule="nonzero" points="95.7694398 106.362769 14 106.362769 14 0 70.2164899 0 95.7694398 25.3244688"></polygon>
                <polygon id="Shape-Copy-5" fill="#FFAD5D" fill-rule="nonzero" points="92.2753025 28.0582454 68 28.0582454 68 4"></polygon>
                <rect id="Rectangle-5-Copy-8" fill="#A75402" x="0" y="16" width="55" height="28" rx="4"></rect>
                <path d="M27.3671875,33.3632812 L22.7441406,33.3632812 L21.8652344,36 L19.0615234,36 L23.8251953,23.203125 L26.2685547,23.203125 L31.0585938,36 L28.2548828,36 L27.3671875,33.3632812 Z M23.4560547,31.2275391 L26.6552734,31.2275391 L25.046875,26.4375 L23.4560547,31.2275391 Z M34.3355781,36 L31.78675,36 L31.78675,26.4902344 L34.3355781,26.4902344 L34.3355781,36 Z M31.6373359,24.0292969 C31.6373359,23.6484356 31.7647761,23.3349622 32.0196601,23.0888672 C32.2745442,22.8427722 32.6217087,22.7197266 33.0611641,22.7197266 C33.49476,22.7197266 33.8404596,22.8427722 34.0982734,23.0888672 C34.3560872,23.3349622 34.4849922,23.6484356 34.4849922,24.0292969 C34.4849922,24.4160176 34.3546224,24.7324206 34.0938789,24.9785156 C33.8331354,25.2246106 33.4889006,25.3476562 33.0611641,25.3476562 C32.6334275,25.3476562 32.2891927,25.2246106 32.0284492,24.9785156 C31.7677057,24.7324206 31.6373359,24.4160176 31.6373359,24.0292969 Z" id="Ai" fill="#FFAD5D"></path>
                <path d="M66.9765625,51 C67.8203167,51 68.5351533,51.2929658 69.1210938,51.8789062 C69.7070342,52.4648467 70,53.1679646 70,53.9882812 C70,54.8320355 69.7070342,55.5410128 69.1210938,56.1152344 C68.5351533,56.689456 67.8203167,56.9765625 66.9765625,56.9765625 C66.7656239,56.9765625 66.5488292,56.9531252 66.3261719,56.90625 C66.1035145,56.8593748 65.8867198,56.789063 65.6757812,56.6953125 L58.328125,64.078125 L58.9960938,64.9921875 C60.0976618,64.3593718 61.2402285,63.7968775 62.4238281,63.3046875 C63.6074278,62.8124975 64.8261656,62.3964861 66.0800781,62.0566406 C67.3339906,61.7167952 68.6230403,61.4531259 69.9472656,61.265625 C71.271491,61.0781241 72.6249931,60.984375 74.0078125,60.984375 L75.9765625,61.0546875 L75.9765625,65.0625 L74.0078125,64.9921875 C72.7187436,64.9921875 71.4472719,65.0859366 70.1933594,65.2734375 C68.9394469,65.4609384 67.7265684,65.7246077 66.5546875,66.0644531 C65.3828066,66.4042986 64.2460993,66.8320287 63.1445312,67.3476562 C62.0429632,67.8632838 60.9882863,68.4374968 59.9804688,69.0703125 C59.9804688,70.1718805 59.7753927,71.2031202 59.3652344,72.1640625 C58.9550761,73.1250048 58.3925817,73.9628871 57.6777344,74.6777344 C56.9628871,75.3925817 56.1250048,75.9550761 55.1640625,76.3652344 C54.2031202,76.7753927 53.1718805,76.9804688 52.0703125,76.9804688 C51.4374968,77.9882863 50.8632838,79.0429632 50.3476562,80.1445312 C49.8320287,81.2460993 49.4042986,82.3828066 49.0644531,83.5546875 C48.7246077,84.7265684 48.4609384,85.9394469 48.2734375,87.1933594 C48.0859366,88.4472719 47.9921875,89.7187436 47.9921875,91.0078125 L48.0625,92.9765625 L44.0546875,92.9765625 L43.984375,91.0078125 C43.984375,89.6249931 44.0781241,88.271491 44.265625,86.9472656 C44.4531259,85.6230403 44.7167952,84.3339906 45.0566406,83.0800781 C45.3964861,81.8261656 45.8124975,80.6074278 46.3046875,79.4238281 C46.7968775,78.2402285 47.3593718,77.0976618 47.9921875,75.9960938 L47.078125,75.328125 L39.6953125,82.6757812 C39.789063,82.8867198 39.8593748,83.1035145 39.90625,83.3261719 C39.9531252,83.5488292 39.9765625,83.7656239 39.9765625,83.9765625 C39.9765625,84.8203167 39.689456,85.5351533 39.1152344,86.1210938 C38.5410128,86.7070342 37.8320355,87 36.9882812,87 C36.1679646,87 35.4648467,86.7070342 34.8789062,86.1210938 C34.2929658,85.5351533 34,84.8203167 34,83.9765625 C34,83.1562459 34.2929658,82.4531279 34.8789062,81.8671875 C35.4648467,81.2812471 36.1679646,80.9882812 36.9882812,80.9882812 C37.2226574,80.9882812 37.4511708,81.0117185 37.6738281,81.0585938 C37.8964855,81.105469 38.1015616,81.1874994 38.2890625,81.3046875 L45.671875,73.8867188 C45.1328098,73.2304655 44.7167983,72.480473 44.4238281,71.6367188 C44.1308579,70.7929645 43.984375,69.9140671 43.984375,69 C43.984375,67.898432 44.1953104,66.861333 44.6171875,65.8886719 C45.0390646,64.9160108 45.6132776,64.0664099 46.3398438,63.3398438 C47.0664099,62.6132776 47.9160108,62.0390646 48.8886719,61.6171875 C49.861333,61.1953104 50.898432,60.984375 52,60.984375 C52.9140671,60.984375 53.7929645,61.1308579 54.6367188,61.4238281 C55.480473,61.7167983 56.2304655,62.1328098 56.8867188,62.671875 L64.3046875,55.2890625 C64.1874994,55.1015616 64.105469,54.8964855 64.0585938,54.6738281 C64.0117185,54.4511708 63.9882812,54.2226574 63.9882812,53.9882812 C63.9882812,53.1679646 64.2812471,52.4648467 64.8671875,51.8789062 C65.4531279,51.2929658 66.1562459,51 66.9765625,51 Z M52,64.9921875 C50.898432,64.9921875 49.9550821,65.3847617 49.1699219,66.1699219 C48.3847617,66.9550821 47.9921875,67.898432 47.9921875,69 C47.9921875,70.101568 48.3847617,71.0449179 49.1699219,71.8300781 C49.9550821,72.6152383 50.898432,73.0078125 52,73.0078125 C53.101568,73.0078125 54.0449179,72.6152383 54.8300781,71.8300781 C55.6152383,71.0449179 56.0078125,70.101568 56.0078125,69 C56.0078125,67.898432 55.6152383,66.9550821 54.8300781,66.1699219 C54.0449179,65.3847617 53.101568,64.9921875 52,64.9921875 Z" id="" fill="#FFAD5D"></path>
            </g>
        </g>
    </g>
</svg>