<?xml version="1.0" encoding="UTF-8"?>
<svg width="96px" height="107px" viewBox="0 0 96 107" version="1.1" xmlns="http://www.w3.org/2000/svg" xmlns:xlink="http://www.w3.org/1999/xlink">
    <!-- Generator: Sketch 57.1 (83088) - https://sketch.com -->
    <title>Animate CC</title>
    <desc>Created with Sketch.</desc>
    <g id="Page-1" stroke="none" stroke-width="1" fill="none" fill-rule="evenodd">
        <g id="Artboard" transform="translate(-1806.000000, -128.000000)">
            <g id="Animate-CC" transform="translate(1806.000000, 128.000000)">
                <polygon id="Shape-Copy-213" fill="#521308" fill-rule="nonzero" points="95.7694398 106.362769 14 106.362769 14 0 70.2164899 0 95.7694398 25.3244688"></polygon>
                <polygon id="Shape-Copy-212" fill="#FE4726" fill-rule="nonzero" points="92.2753025 28.0582454 68 28.0582454 68 4"></polygon>
                <rect id="Rectangle-5-Copy-176" fill="#370D06" x="0" y="16" width="55" height="28" rx="4"></rect>
                <path d="M24.3056641,34.1601562 L19.6826172,34.1601562 L18.8037109,36.796875 L16,36.796875 L20.7636719,24 L23.2070312,24 L27.9970703,36.796875 L25.1933594,36.796875 L24.3056641,34.1601562 Z M20.3945312,32.0244141 L23.59375,32.0244141 L21.9853516,27.234375 L20.3945312,32.0244141 Z M39.1666328,36.796875 L36.5299141,36.796875 L31.3971016,28.3769531 L31.3971016,36.796875 L28.7603828,36.796875 L28.7603828,24 L31.3971016,24 L36.5387031,32.4375 L36.5387031,24 L39.1666328,24 L39.1666328,36.796875 Z" id="AN" fill="#FE4726"></path>
                <path d="M42.984375,64.984375 L42.984375,55 L57.0117188,55 L57.0117188,64.984375 L76.9804688,64.984375 L76.9804688,78.9765625 L66.9960938,78.9765625 L66.9960938,88.9960938 L53.0039062,88.9960938 L53.0039062,78.9765625 L33,78.9765625 L33,64.984375 L42.984375,64.984375 Z M62.9882812,78.9765625 L57.0117188,78.9765625 L57.0117188,84.9882812 L62.9882812,84.9882812 L62.9882812,78.9765625 Z M46.9921875,64.984375 L53.0039062,64.984375 L53.0039062,58.9726562 L46.9921875,58.9726562 L46.9921875,64.984375 Z M42.984375,74.96875 L42.984375,68.9921875 L37.0078125,68.9921875 L37.0078125,74.96875 L42.984375,74.96875 Z M66.9960938,68.9921875 L66.9960938,74.96875 L73.0078125,74.96875 L73.0078125,68.9921875 L66.9960938,68.9921875 Z M57.0117188,68.9921875 L57.0117188,74.96875 L62.9882812,74.96875 L62.9882812,68.9921875 L57.0117188,68.9921875 Z M46.9921875,68.9921875 L46.9921875,74.96875 L53.0039062,74.96875 L53.0039062,68.9921875 L46.9921875,68.9921875 Z" id="" fill="#FE4726"></path>
            </g>
        </g>
    </g>
</svg>