<?xml version="1.0" encoding="UTF-8"?>
<svg width="96px" height="107px" viewBox="0 0 96 107" version="1.1" xmlns="http://www.w3.org/2000/svg" xmlns:xlink="http://www.w3.org/1999/xlink">
    <!-- Generator: Sketch 57.1 (83088) - https://sketch.com -->
    <title>CSV</title>
    <desc>Created with Sketch.</desc>
    <g id="Page-1" stroke="none" stroke-width="1" fill="none" fill-rule="evenodd">
        <g id="Artboard" transform="translate(-1226.000000, -564.000000)">
            <g id="CSV" transform="translate(1226.000000, 564.000000)">
                <polygon id="Shape-Copy-32" fill="#79A92E" fill-rule="nonzero" points="95.7694398 106.362769 14 106.362769 14 0 70.2164899 0 95.7694398 25.3244688"></polygon>
                <polygon id="Shape-Copy-31" fill="#99CD48" fill-rule="nonzero" points="92.2753025 27.0582454 68 27.0582454 68 3"></polygon>
                <rect id="Rectangle-5-Copy-23" fill="#658C28" x="0" y="16" width="55" height="28" rx="4"></rect>
                <path d="M21.1884766,32.7373047 C21.0888667,34.1142647 20.580571,35.1982382 19.6635742,35.9892578 C18.7465774,36.7802774 17.5380934,37.1757812 16.0380859,37.1757812 C14.3974527,37.1757812 13.1069383,36.6235407 12.1665039,35.519043 C11.2260695,34.4145453 10.7558594,32.8984471 10.7558594,30.9707031 L10.7558594,30.1884766 C10.7558594,28.9580017 10.9726541,27.8740281 11.40625,26.9365234 C11.8398459,25.9990187 12.4594686,25.2797877 13.2651367,24.7788086 C14.0708048,24.2778295 15.0068306,24.0273438 16.0732422,24.0273438 C17.5498121,24.0273438 18.7392533,24.4228476 19.6416016,25.2138672 C20.5439498,26.0048868 21.065429,27.1152272 21.2060547,28.5449219 L18.5693359,28.5449219 C18.5048825,27.7187459 18.2749043,27.1196308 17.8793945,26.7475586 C17.4838847,26.3754864 16.88184,26.1894531 16.0732422,26.1894531 C15.1943315,26.1894531 14.5366233,26.5043914 14.1000977,27.1342773 C13.663572,27.7641633 13.4394532,28.7412043 13.4277344,30.0654297 L13.4277344,31.0322266 C13.4277344,32.415046 13.6372049,33.4257781 14.0561523,34.0644531 C14.4750998,34.7031282 15.1357377,35.0224609 16.0380859,35.0224609 C16.8525431,35.0224609 17.4604472,34.8364276 17.8618164,34.4643555 C18.2631856,34.0922833 18.4931638,33.5166055 18.5517578,32.7373047 L21.1884766,32.7373047 Z M29.1236641,33.6425781 C29.1236641,33.1445288 28.9478846,32.7622084 28.5963203,32.4956055 C28.244756,32.2290026 27.6119499,31.9477554 26.6978828,31.6518555 C25.7838157,31.3559556 25.0601902,31.0644546 24.5269844,30.7773438 C23.0738521,29.9921836 22.3472969,28.934577 22.3472969,27.6044922 C22.3472969,26.9130825 22.5421191,26.2963894 22.9317695,25.7543945 C23.3214199,25.2123996 23.8809846,24.789064 24.6104805,24.484375 C25.3399763,24.179686 26.1588158,24.0273438 27.0670234,24.0273438 C27.9810905,24.0273438 28.7955355,24.1928694 29.5103828,24.5239258 C30.2252301,24.8549821 30.7804004,25.3222626 31.1759101,25.9257812 C31.5714199,26.5292999 31.7691719,27.2148399 31.7691719,27.9824219 L29.1324531,27.9824219 C29.1324531,27.3964814 28.9478846,26.9409196 28.5787422,26.6157227 C28.2095997,26.2905257 27.6910502,26.1279297 27.0230781,26.1279297 C26.3785436,26.1279297 25.8775721,26.2641588 25.5201484,26.5366211 C25.1627248,26.8090834 24.9840156,27.1679665 24.9840156,27.6132812 C24.9840156,28.029299 25.1934862,28.3779283 25.6124336,28.6591797 C26.031381,28.9404311 26.648074,29.2041003 27.4625312,29.4501953 C28.9625387,29.9013694 30.0553012,30.4609342 30.7408516,31.1289062 C31.4264019,31.7968783 31.7691719,32.6289013 31.7691719,33.625 C31.7691719,34.7324274 31.3502307,35.6010711 30.5123359,36.230957 C29.6744411,36.860843 28.5465227,37.1757812 27.1285469,37.1757812 C26.1441669,37.1757812 25.2476915,36.9956073 24.4390937,36.6352539 C23.6304959,36.2749005 23.0138029,35.7812531 22.5889961,35.1542969 C22.1641893,34.5273438 21.9517891,33.8007854 21.9517891,32.9746094 L24.5972969,32.9746094 C24.5972969,34.3867258 25.4410384,35.0927734 27.1285469,35.0927734 C27.7555031,35.0927734 28.244756,34.9653333 28.5963203,34.7104492 C28.9478846,34.4555651 29.1236641,34.0996117 29.1236641,33.6425781 Z M37.8498672,33.8271484 L40.7502578,24.203125 L43.6858047,24.203125 L39.22975,37 L36.4787734,37 L32.0402969,24.203125 L34.9670547,24.203125 L37.8498672,33.8271484 Z" id="CSV-Copy-2" fill="#99CD48"></path>
                <polygon id="-copy-2" fill="#99CD48" points="73.5625 57 59.375 57 59.375 64.125 62.875 64.125 55.8125 70.0625 48.6875 64.125 52.25 64.125 52.25 57 38 57 38 64.125 41.5625 64.125 52.25 73 41.5625 81.875 38 81.875 38 89 52.25 89 52.25 81.875 48.6875 81.875 55.8125 75.9375 62.875 81.875 59.375 81.875 59.375 89 73.5625 89 73.5625 81.875 70 81.875 59.375 73 70 64.125 73.5625 64.125"></polygon>
            </g>
        </g>
    </g>
</svg>