<?xml version="1.0" encoding="UTF-8"?>
<svg width="96px" height="107px" viewBox="0 0 96 107" version="1.1" xmlns="http://www.w3.org/2000/svg" xmlns:xlink="http://www.w3.org/1999/xlink">
    <!-- Generator: Sketch 57.1 (83088) - https://sketch.com -->
    <title>DAT</title>
    <desc>Created with Sketch.</desc>
    <g id="Page-1" stroke="none" stroke-width="1" fill="none" fill-rule="evenodd">
        <g id="Artboard" transform="translate(-947.000000, -708.000000)">
            <g id="DAT" transform="translate(947.000000, 708.000000)">
                <polygon id="Shape-Copy-158" fill="#11907C" fill-rule="nonzero" points="95.7694398 106.362769 14 106.362769 14 0 70.2164899 0 95.7694398 25.3244688"></polygon>
                <polygon id="Shape-Copy-157" fill="#37D2BA" fill-rule="nonzero" points="92.2753025 28.0582454 68 28.0582454 68 4"></polygon>
                <rect id="Rectangle-5-Copy-126" fill="#0D6254" x="0" y="16" width="55" height="28" rx="4"></rect>
                <path d="M13.0791016,36 L13.0791016,23.9140625 L16.7978516,23.9140625 C17.8603569,23.9140625 18.8107868,24.1533993 19.6491699,24.6320801 C20.487553,25.1107609 21.1419247,25.7914181 21.6123047,26.6740723 C22.0826846,27.5567264 22.3178711,28.5597275 22.3178711,29.6831055 L22.3178711,30.2392578 C22.3178711,31.3626358 22.086835,32.3614865 21.6247559,33.2358398 C21.1626767,34.1101932 20.5110719,34.7880835 19.6699219,35.2695312 C18.8287718,35.750979 17.8797253,35.9944661 16.8227539,36 L13.0791016,36 Z M15.5693359,25.9311523 L15.5693359,33.9995117 L16.7729492,33.9995117 C17.7469124,33.9995117 18.4912084,33.6813183 19.0058594,33.0449219 C19.5205104,32.4085255 19.7833658,31.4982156 19.7944336,30.3139648 L19.7944336,29.6748047 C19.7944336,28.4462829 19.5398788,27.5152213 19.0307617,26.8815918 C18.5216446,26.2479623 17.7773486,25.9311523 16.7978516,25.9311523 L15.5693359,25.9311523 Z M30.3443672,33.5097656 L25.9781562,33.5097656 L25.1480781,36 L22.5001289,36 L26.9991523,23.9140625 L29.3067695,23.9140625 L33.8306953,36 L31.1827461,36 L30.3443672,33.5097656 Z M26.6505195,31.4926758 L29.6720039,31.4926758 L28.1529609,26.96875 L26.6505195,31.4926758 Z M42.629164,25.9311523 L38.9270156,25.9311523 L38.9270156,36 L36.4367812,36 L36.4367812,25.9311523 L32.7844375,25.9311523 L32.7844375,23.9140625 L42.629164,23.9140625 L42.629164,25.9311523 Z" fill="#37D2BA"></path>
                <path d="M33,71.9765625 L47.9765625,86.953125 L53.671875,81.2578125 L44.3203125,71.9765625 L53.671875,62.625 L47.9765625,57 L33,71.9765625 Z M77.6484375,71.9765625 L62.671875,57 L56.9765625,62.625 L66.328125,71.9765625 L56.9765625,81.2578125 L62.671875,86.953125 L77.6484375,71.9765625 Z" id="-copy-2" fill="#37D2BA"></path>
            </g>
        </g>
    </g>
</svg>