<?xml version="1.0" encoding="UTF-8"?>
<svg width="96px" height="107px" viewBox="0 0 96 107" version="1.1" xmlns="http://www.w3.org/2000/svg" xmlns:xlink="http://www.w3.org/1999/xlink">
    <!-- Generator: Sketch 57.1 (83088) - https://sketch.com -->
    <title>Microsoft DOCH File</title>
    <desc>Created with Sketch.</desc>
    <g id="Page-1" stroke="none" stroke-width="1" fill="none" fill-rule="evenodd">
        <g id="Artboard" transform="translate(-1510.000000, -420.000000)">
            <g id="Microsoft-DOCH-File" transform="translate(1510.000000, 420.000000)">
                <polygon id="Shape-Copy-3" fill="#1C5DA4" fill-rule="nonzero" points="95.7694398 106.362769 14 106.362769 14 0 70.2164899 0 95.7694398 25.3244688"></polygon>
                <polygon id="Shape-Copy-2" fill="#7BB6F6" fill-rule="nonzero" points="92.0602487 27.5664421 67.7849462 27.5664421 67.7849462 3.50819672"></polygon>
                <rect id="Rectangle-5-Copy-134" fill="#2C7ACD" x="0" y="16" width="55" height="28" rx="4"></rect>
                <path d="M6.07910156,37 L6.07910156,24.9140625 L9.79785156,24.9140625 C10.8603569,24.9140625 11.8107868,25.1533993 12.6491699,25.6320801 C13.487553,26.1107609 14.1419247,26.7914181 14.6123047,27.6740723 C15.0826846,28.5567264 15.3178711,29.5597275 15.3178711,30.6831055 L15.3178711,31.2392578 C15.3178711,32.3626358 15.086835,33.3614865 14.6247559,34.2358398 C14.1626767,35.1101932 13.5110719,35.7880835 12.6699219,36.2695312 C11.8287718,36.750979 10.8797253,36.9944661 9.82275391,37 L6.07910156,37 Z M8.56933594,26.9311523 L8.56933594,34.9995117 L9.77294922,34.9995117 C10.7469124,34.9995117 11.4912084,34.6813183 12.0058594,34.0449219 C12.5205104,33.4085255 12.7833658,32.4982156 12.7944336,31.3139648 L12.7944336,30.6748047 C12.7944336,29.4462829 12.5398788,28.5152213 12.0307617,27.8815918 C11.5216446,27.2479623 10.7773486,26.9311523 9.79785156,26.9311523 L8.56933594,26.9311523 Z M26.6231758,31.230957 C26.6231758,32.4207416 26.4128914,33.4638627 25.9923164,34.3603516 C25.5717414,35.2568404 24.9699408,35.9485653 24.1868965,36.4355469 C23.4038522,36.9225285 22.5059933,37.1660156 21.493293,37.1660156 C20.4916603,37.1660156 19.5979518,36.9252954 18.8121406,36.4438477 C18.0263294,35.9623999 17.4176115,35.2748254 16.9859687,34.3811035 C16.554326,33.4873816 16.3357409,32.4594785 16.330207,31.2973633 L16.330207,30.699707 C16.330207,29.5099224 16.5446417,28.462651 16.9735176,27.5578613 C17.4023934,26.6530716 18.0083444,25.9585799 18.7913887,25.4743652 C19.5744329,24.9901506 20.4695249,24.7480469 21.4766914,24.7480469 C22.4838579,24.7480469 23.3789498,24.9901506 24.1619941,25.4743652 C24.9450384,25.9585799 25.5509894,26.6530716 25.9798652,27.5578613 C26.4087411,28.462651 26.6231758,29.5071555 26.6231758,30.6914062 L26.6231758,31.230957 Z M24.0997383,30.6831055 C24.0997383,29.4158465 23.8728525,28.4529655 23.4190742,27.7944336 C22.9652959,27.1359017 22.3178414,26.8066406 21.4766914,26.8066406 C20.6410752,26.8066406 19.9963877,27.1317513 19.5426094,27.7819824 C19.0888311,28.4322135 18.8591784,29.3854104 18.8536445,30.6416016 L18.8536445,31.230957 C18.8536445,32.4650127 19.0805303,33.4223599 19.5343086,34.1030273 C19.9880869,34.7836948 20.6410752,35.1240234 21.493293,35.1240234 C22.3289091,35.1240234 22.9708298,34.7961459 23.4190742,34.1403809 C23.8673186,33.4846159 24.0942044,32.5286521 24.0997383,31.2724609 L24.0997383,30.6831055 Z M37.488539,32.9741211 C37.394463,34.2745833 36.914406,35.2983361 36.0483535,36.0454102 C35.182301,36.7924842 34.040955,37.1660156 32.6242812,37.1660156 C31.0747943,37.1660156 29.8559751,36.6444551 28.9677871,35.6013184 C28.0795991,34.5581816 27.6355117,33.1263112 27.6355117,31.3056641 L27.6355117,30.5668945 C27.6355117,29.4047793 27.8402623,28.3810266 28.2497695,27.4956055 C28.6592768,26.6101844 29.244476,25.9309106 30.0053847,25.4577637 C30.7662935,24.9846168 31.6503179,24.7480469 32.6574844,24.7480469 C34.0520226,24.7480469 35.1753837,25.1215783 36.0276015,25.8686523 C36.8798193,26.6157264 37.3723274,27.6643813 37.5051406,29.0146484 L35.0149062,29.0146484 C34.9540335,28.2343711 34.7368319,27.6685402 34.3632949,27.3171387 C33.9897579,26.9657372 33.42116,26.7900391 32.6574844,26.7900391 C31.8274021,26.7900391 31.2062332,27.0874807 30.793959,27.682373 C30.3816848,28.2772653 30.170017,29.2000263 30.1589492,30.4506836 L30.1589492,31.3637695 C30.1589492,32.6697656 30.3567825,33.6243459 30.7524551,34.2275391 C31.1481276,34.8307322 31.7720634,35.1323242 32.6242812,35.1323242 C33.3934908,35.1323242 33.9676224,34.9566261 34.3466933,34.6052246 C34.7257642,34.2538231 34.9429658,33.7101274 34.9983047,32.9741211 L37.488539,32.9741211 Z M48.5282187,37 L46.0379843,37 L46.0379843,31.8203125 L41.1820273,31.8203125 L41.1820273,37 L38.6917929,37 L38.6917929,24.9140625 L41.1820273,24.9140625 L41.1820273,29.8115234 L46.0379843,29.8115234 L46.0379843,24.9140625 L48.5282187,24.9140625 L48.5282187,37 Z" id="DOCH" fill="#7BB6F6"></path>
                <polygon id="Path-Copy-103" fill="#7BB6F6" points="35 63.9009303 37.6006202 63.9009303 37.6006202 87.307054 46.0529068 87.307054 52.5544573 75.7394976 52.5544573 87.307054 60.3563178 87.307054 72.0593797 63.9009303 74.6599998 63.9009303 74.6599998 60 62.957209 60 62.957209 63.9009303 64.9076742 63.9009303 60.3563178 72.8678665 60.3563178 60 51.2541472 60 43.4520156 74.6830972 43.4520156 63.9009303 46.0529068 63.9009303 46.0529068 60 35 60"></polygon>
            </g>
        </g>
    </g>
</svg>