<?xml version="1.0" encoding="UTF-8"?>
<svg width="96px" height="107px" viewBox="0 0 96 107" version="1.1" xmlns="http://www.w3.org/2000/svg" xmlns:xlink="http://www.w3.org/1999/xlink">
    <!-- Generator: Sketch 57.1 (83088) - https://sketch.com -->
    <title>Microsoft DOCM</title>
    <desc>Created with Sketch.</desc>
    <g id="Page-1" stroke="none" stroke-width="1" fill="none" fill-rule="evenodd">
        <g id="Artboard" transform="translate(-1657.000000, -420.000000)">
            <g id="Microsoft-DOCM" transform="translate(1657.000000, 420.000000)">
                <polygon id="Shape-Copy-3" fill="#1C5DA4" fill-rule="nonzero" points="95.7694398 106.362769 14 106.362769 14 0 70.2164899 0 95.7694398 25.3244688"></polygon>
                <polygon id="Shape-Copy-2" fill="#7BB6F6" fill-rule="nonzero" points="92.0602487 27.5664421 67.7849462 27.5664421 67.7849462 3.50819672"></polygon>
                <rect id="Rectangle-5-Copy-136" fill="#2C7ACD" x="0" y="16" width="55" height="28" rx="4"></rect>
                <path d="M4.07910156,36 L4.07910156,23.9140625 L7.79785156,23.9140625 C8.86035688,23.9140625 9.81078682,24.1533993 10.6491699,24.6320801 C11.487553,25.1107609 12.1419247,25.7914181 12.6123047,26.6740723 C13.0826846,27.5567264 13.3178711,28.5597275 13.3178711,29.6831055 L13.3178711,30.2392578 C13.3178711,31.3626358 13.086835,32.3614865 12.6247559,33.2358398 C12.1626767,34.1101932 11.5110719,34.7880835 10.6699219,35.2695312 C9.82877184,35.750979 8.87972534,35.9944661 7.82275391,36 L4.07910156,36 Z M6.56933594,25.9311523 L6.56933594,33.9995117 L7.77294922,33.9995117 C8.74691242,33.9995117 9.49120836,33.6813183 10.0058594,33.0449219 C10.5205104,32.4085255 10.7833658,31.4982156 10.7944336,30.3139648 L10.7944336,29.6748047 C10.7944336,28.4462829 10.5398788,27.5152213 10.0307617,26.8815918 C9.52164459,26.2479623 8.77734865,25.9311523 7.79785156,25.9311523 L6.56933594,25.9311523 Z M24.6231758,30.230957 C24.6231758,31.4207416 24.4128914,32.4638627 23.9923164,33.3603516 C23.5717414,34.2568404 22.9699408,34.9485653 22.1868965,35.4355469 C21.4038522,35.9225285 20.5059933,36.1660156 19.493293,36.1660156 C18.4916603,36.1660156 17.5979518,35.9252954 16.8121406,35.4438477 C16.0263294,34.9623999 15.4176115,34.2748254 14.9859687,33.3811035 C14.554326,32.4873816 14.3357409,31.4594785 14.330207,30.2973633 L14.330207,29.699707 C14.330207,28.5099224 14.5446417,27.462651 14.9735176,26.5578613 C15.4023934,25.6530716 16.0083444,24.9585799 16.7913887,24.4743652 C17.5744329,23.9901506 18.4695249,23.7480469 19.4766914,23.7480469 C20.4838579,23.7480469 21.3789498,23.9901506 22.1619941,24.4743652 C22.9450384,24.9585799 23.5509894,25.6530716 23.9798652,26.5578613 C24.4087411,27.462651 24.6231758,28.5071555 24.6231758,29.6914062 L24.6231758,30.230957 Z M22.0997383,29.6831055 C22.0997383,28.4158465 21.8728525,27.4529655 21.4190742,26.7944336 C20.9652959,26.1359017 20.3178414,25.8066406 19.4766914,25.8066406 C18.6410752,25.8066406 17.9963877,26.1317513 17.5426094,26.7819824 C17.0888311,27.4322135 16.8591784,28.3854104 16.8536445,29.6416016 L16.8536445,30.230957 C16.8536445,31.4650127 17.0805303,32.4223599 17.5343086,33.1030273 C17.9880869,33.7836948 18.6410752,34.1240234 19.493293,34.1240234 C20.3289091,34.1240234 20.9708298,33.7961459 21.4190742,33.1403809 C21.8673186,32.4846159 22.0942044,31.5286521 22.0997383,30.2724609 L22.0997383,29.6831055 Z M35.488539,31.9741211 C35.394463,33.2745833 34.914406,34.2983361 34.0483535,35.0454102 C33.182301,35.7924842 32.040955,36.1660156 30.6242812,36.1660156 C29.0747943,36.1660156 27.8559751,35.6444551 26.9677871,34.6013184 C26.0795991,33.5581816 25.6355117,32.1263112 25.6355117,30.3056641 L25.6355117,29.5668945 C25.6355117,28.4047793 25.8402623,27.3810266 26.2497695,26.4956055 C26.6592768,25.6101844 27.244476,24.9309106 28.0053847,24.4577637 C28.7662935,23.9846168 29.6503179,23.7480469 30.6574844,23.7480469 C32.0520226,23.7480469 33.1753837,24.1215783 34.0276015,24.8686523 C34.8798193,25.6157264 35.3723274,26.6643813 35.5051406,28.0146484 L33.0149062,28.0146484 C32.9540335,27.2343711 32.7368319,26.6685402 32.3632949,26.3171387 C31.9897579,25.9657372 31.42116,25.7900391 30.6574844,25.7900391 C29.8274021,25.7900391 29.2062332,26.0874807 28.793959,26.682373 C28.3816848,27.2772653 28.170017,28.2000263 28.1589492,29.4506836 L28.1589492,30.3637695 C28.1589492,31.6697656 28.3567825,32.6243459 28.7524551,33.2275391 C29.1481276,33.8307322 29.7720634,34.1323242 30.6242812,34.1323242 C31.3934908,34.1323242 31.9676224,33.9566261 32.3466933,33.6052246 C32.7257642,33.2538231 32.9429658,32.7101274 32.9983047,31.9741211 L35.488539,31.9741211 Z M39.9456992,23.9140625 L43.0501914,32.6796875 L46.138082,23.9140625 L49.4085898,23.9140625 L49.4085898,36 L46.9100547,36 L46.9100547,32.6962891 L47.1590781,26.9936523 L43.8968711,36 L42.1869101,36 L38.9330039,27.0019531 L39.1820273,32.6962891 L39.1820273,36 L36.6917929,36 L36.6917929,23.9140625 L39.9456992,23.9140625 Z" id="DOCM" fill="#7BB6F6"></path>
                <polygon id="Path-Copy-105" fill="#7BB6F6" points="35 63.9009303 37.6006202 63.9009303 37.6006202 87.307054 46.0529068 87.307054 52.5544573 75.7394976 52.5544573 87.307054 60.3563178 87.307054 72.0593797 63.9009303 74.6599998 63.9009303 74.6599998 60 62.957209 60 62.957209 63.9009303 64.9076742 63.9009303 60.3563178 72.8678665 60.3563178 60 51.2541472 60 43.4520156 74.6830972 43.4520156 63.9009303 46.0529068 63.9009303 46.0529068 60 35 60"></polygon>
            </g>
        </g>
    </g>
</svg>