<?xml version="1.0" encoding="UTF-8"?>
<svg width="96px" height="107px" viewBox="0 0 96 107" version="1.1" xmlns="http://www.w3.org/2000/svg" xmlns:xlink="http://www.w3.org/1999/xlink">
    <!-- Generator: Sketch 57.1 (83088) - https://sketch.com -->
    <title>Microsoft DOTH </title>
    <desc>Created with Sketch.</desc>
    <g id="Page-1" stroke="none" stroke-width="1" fill="none" fill-rule="evenodd">
        <g id="Artboard" transform="translate(-1806.000000, -420.000000)">
            <g id="Microsoft-DOTH-" transform="translate(1806.000000, 420.000000)">
                <polygon id="Shape-Copy-3" fill="#1C5DA4" fill-rule="nonzero" points="95.7694398 106.362769 14 106.362769 14 0 70.2164899 0 95.7694398 25.3244688"></polygon>
                <polygon id="Shape-Copy-2" fill="#7BB6F6" fill-rule="nonzero" points="92.0602487 27.5664421 67.7849462 27.5664421 67.7849462 3.50819672"></polygon>
                <rect id="Rectangle-5-Copy-138" fill="#2C7ACD" x="0" y="16" width="55" height="28" rx="4"></rect>
                <text id="DOTH" font-family="Roboto-Bold, Roboto" font-size="17" font-weight="bold" letter-spacing="-0.432" fill="#7BB6F6">
                    <tspan x="6" y="36">DOTH</tspan>
                </text>
                <polygon id="Path-Copy-107" fill="#7BB6F6" points="35 63.9009303 37.6006202 63.9009303 37.6006202 87.307054 46.0529068 87.307054 52.5544573 75.7394976 52.5544573 87.307054 60.3563178 87.307054 72.0593797 63.9009303 74.6599998 63.9009303 74.6599998 60 62.957209 60 62.957209 63.9009303 64.9076742 63.9009303 60.3563178 72.8678665 60.3563178 60 51.2541472 60 43.4520156 74.6830972 43.4520156 63.9009303 46.0529068 63.9009303 46.0529068 60 35 60"></polygon>
            </g>
        </g>
    </g>
</svg>