<?xml version="1.0" encoding="UTF-8"?>
<svg width="96px" height="107px" viewBox="0 0 96 107" version="1.1" xmlns="http://www.w3.org/2000/svg" xmlns:xlink="http://www.w3.org/1999/xlink">
    <!-- Generator: Sketch 57.1 (83088) - https://sketch.com -->
    <title>DreamWeaver</title>
    <desc>Created with Sketch.</desc>
    <g id="Page-1" stroke="none" stroke-width="1" fill="none" fill-rule="evenodd">
        <g id="Artboard" transform="translate(-1657.000000, -128.000000)">
            <g id="DreamWeaver" transform="translate(1657.000000, 128.000000)">
                <polygon id="Shape-Copy-213" fill="#0B3101" fill-rule="nonzero" points="95.7694398 106.362769 14 106.362769 14 0 70.2164899 0 95.7694398 25.3244688"></polygon>
                <polygon id="Shape-Copy-212" fill="#34F800" fill-rule="nonzero" points="92.2753025 28.0582454 68 28.0582454 68 4"></polygon>
                <rect id="Rectangle-5-Copy-176" fill="#000000" x="0" y="16" width="55" height="28" rx="4"></rect>
                <path d="M14.1425781,37 L14.1425781,24.203125 L18.0800781,24.203125 C19.2050838,24.203125 20.2114213,24.4565404 21.0991211,24.9633789 C21.9868208,25.4702174 22.679685,26.1909133 23.1777344,27.1254883 C23.6757837,28.0600633 23.9248047,29.1220644 23.9248047,30.3115234 L23.9248047,30.9003906 C23.9248047,32.0898497 23.6801782,33.1474563 23.190918,34.0732422 C22.7016577,34.9990281 22.0117232,35.7167943 21.1210938,36.2265625 C20.2304643,36.7363307 19.2255915,36.9941406 18.1064453,37 L14.1425781,37 Z M16.7792969,26.3388672 L16.7792969,34.8818359 L18.0537109,34.8818359 C19.0849661,34.8818359 19.8730442,34.5449252 20.4179688,33.8710938 C20.9628933,33.1972623 21.2412109,32.2334047 21.2529297,30.9794922 L21.2529297,30.3027344 C21.2529297,29.0019466 20.9834011,28.0161166 20.4443359,27.3452148 C19.9052707,26.6743131 19.1171927,26.3388672 18.0800781,26.3388672 L16.7792969,26.3388672 Z M36.2776172,33.3085938 L38.0002734,24.203125 L40.6282031,24.203125 L37.7893359,37 L35.1350391,37 L33.0520312,28.4394531 L30.9690234,37 L28.3147266,37 L25.4758594,24.203125 L28.1037891,24.203125 L29.8352344,33.2910156 L31.9446094,24.203125 L34.1770312,24.203125 L36.2776172,33.3085938 Z" id="DW" fill="#34F800"></path>
                <path d="M46.984375,54 C45.882807,54 44.9394571,54.3925742 44.1542969,55.1777344 C43.3691367,55.9628946 42.9765625,56.8945259 42.9765625,57.9726562 L42.9765625,65.9882812 C42.9765625,67.0898493 42.5839883,68.0331992 41.7988281,68.8183594 C41.0136679,69.6035196 40.0820366,69.9960938 39.0039062,69.9960938 L37,69.9960938 L37,74.0039062 L39.0039062,74.0039062 C40.0820366,74.0039062 41.0136679,74.3906211 41.7988281,75.1640625 C42.5839883,75.9375039 42.9765625,76.8749945 42.9765625,77.9765625 L42.9765625,85.9921875 C42.9765625,87.0937555 43.3691367,88.0371054 44.1542969,88.8222656 C44.9394571,89.6074258 45.882807,90 46.984375,90 L50.9921875,90 L50.9921875,85.9921875 L46.984375,85.9921875 L46.984375,75.9726562 C46.984375,74.8945259 46.5918008,73.9628946 45.8066406,73.1777344 C45.0214804,72.3925742 44.0781305,72 42.9765625,72 C44.0781305,72 45.0214804,71.6074258 45.8066406,70.8222656 C46.5918008,70.0371054 46.984375,69.0937555 46.984375,67.9921875 L46.984375,57.9726562 L50.9921875,57.9726562 L50.9921875,54 L46.984375,54 Z M62.9804688,54 C64.0820368,54 65.0253867,54.3925742 65.8105469,55.1777344 C66.5957071,55.9628946 66.9882812,56.8945259 66.9882812,57.9726562 L66.9882812,65.9882812 C66.9882812,67.0898493 67.3808554,68.0331992 68.1660156,68.8183594 C68.9511758,69.6035196 69.8945257,69.9960938 70.9960938,69.9960938 L73,69.9960938 L73,74.0039062 L70.9960938,74.0039062 C69.8945257,74.0039062 68.9511758,74.3906211 68.1660156,75.1640625 C67.3808554,75.9375039 66.9882812,76.8749945 66.9882812,77.9765625 L66.9882812,85.9921875 C66.9882812,87.0937555 66.5957071,88.0371054 65.8105469,88.8222656 C65.0253867,89.6074258 64.0820368,90 62.9804688,90 L58.9726562,90 L58.9726562,85.9921875 L62.9804688,85.9921875 L62.9804688,75.9726562 C62.9804688,74.8945259 63.3730429,73.9628946 64.1582031,73.1777344 C64.9433633,72.3925742 65.8867132,72 66.9882812,72 C65.8867132,72 64.9433633,71.6074258 64.1582031,70.8222656 C63.3730429,70.0371054 62.9804688,69.0937555 62.9804688,67.9921875 L62.9804688,57.9726562 L58.9726562,57.9726562 L58.9726562,54 L62.9804688,54 Z" id="" fill="#34F800"></path>
            </g>
        </g>
    </g>
</svg>