<?xml version="1.0" encoding="UTF-8"?>
<svg width="96px" height="107px" viewBox="0 0 96 107" version="1.1" xmlns="http://www.w3.org/2000/svg" xmlns:xlink="http://www.w3.org/1999/xlink">
    <!-- Generator: Sketch 57.1 (83088) - https://sketch.com -->
    <title>Fuse</title>
    <desc>Created with Sketch.</desc>
    <g id="Page-1" stroke="none" stroke-width="1" fill="none" fill-rule="evenodd">
        <g id="Artboard" transform="translate(-1959.000000, -128.000000)">
            <g id="Fuse" transform="translate(1959.000000, 128.000000)">
                <polygon id="Shape-Copy-213" fill="#462A04" fill-rule="nonzero" points="95.7694398 106.362769 14 106.362769 14 0 70.2164899 0 95.7694398 25.3244688"></polygon>
                <polygon id="Shape-Copy-212" fill="#FF990F" fill-rule="nonzero" points="92.2753025 28.0582454 68 28.0582454 68 4"></polygon>
                <rect id="Rectangle-5-Copy-176" fill="#0B0601" x="0" y="16" width="55" height="28" rx="4"></rect>
                <path d="M25.8417969,31.7705078 L20.7792969,31.7705078 L20.7792969,37 L18.1425781,37 L18.1425781,24.203125 L26.4746094,24.203125 L26.4746094,26.3388672 L20.7792969,26.3388672 L20.7792969,29.6435547 L25.8417969,29.6435547 L25.8417969,31.7705078 Z M34.2076484,33.6425781 C34.2076484,33.1445288 34.0318689,32.7622084 33.6803047,32.4956055 C33.3287404,32.2290026 32.6959342,31.9477554 31.7818672,31.6518555 C30.8678001,31.3559556 30.1441745,31.0644546 29.6109687,30.7773438 C28.1578365,29.9921836 27.4312812,28.934577 27.4312812,27.6044922 C27.4312812,26.9130825 27.6261035,26.2963894 28.0157539,25.7543945 C28.4054043,25.2123996 28.964969,24.789064 29.6944648,24.484375 C30.4239607,24.179686 31.2428001,24.0273438 32.1510078,24.0273438 C33.0650749,24.0273438 33.8795199,24.1928694 34.5943672,24.5239258 C35.3092145,24.8549821 35.8643847,25.3222626 36.2598945,25.9257812 C36.6554043,26.5292999 36.8531562,27.2148399 36.8531562,27.9824219 L34.2164375,27.9824219 C34.2164375,27.3964814 34.031869,26.9409196 33.6627266,26.6157227 C33.2935841,26.2905257 32.7750346,26.1279297 32.1070625,26.1279297 C31.462528,26.1279297 30.9615565,26.2641588 30.6041328,26.5366211 C30.2467091,26.8090834 30.068,27.1679665 30.068,27.6132812 C30.068,28.029299 30.2774706,28.3779283 30.696418,28.6591797 C31.1153654,28.9404311 31.7320584,29.2041003 32.5465156,29.4501953 C34.0465231,29.9013694 35.1392856,30.4609342 35.8248359,31.1289062 C36.5103862,31.7968783 36.8531562,32.6289013 36.8531562,33.625 C36.8531562,34.7324274 36.4342151,35.6010711 35.5963203,36.230957 C34.7584255,36.860843 33.6305071,37.1757812 32.2125312,37.1757812 C31.2281513,37.1757812 30.3316759,36.9956073 29.5230781,36.6352539 C28.7144803,36.2749005 28.0977873,35.7812531 27.6729805,35.1542969 C27.2481736,34.5273438 27.0357734,33.8007854 27.0357734,32.9746094 L29.6812812,32.9746094 C29.6812812,34.3867258 30.5250228,35.0927734 32.2125312,35.0927734 C32.8394875,35.0927734 33.3287404,34.9653333 33.6803047,34.7104492 C34.0318689,34.4555651 34.2076484,34.0996117 34.2076484,33.6425781 Z" id="FS" fill="#FF990C"></path>
                <path d="M58,76.9765625 C54.6249831,76.9765625 52.2636786,77.503901 50.9160156,78.5585938 C49.5683526,79.6132865 48.7070331,80.585933 48.3320312,81.4765625 C49.4101616,81.9453148 50.2890591,82.6718701 50.96875,83.65625 C51.6484409,84.6406299 51.9882812,85.7539 51.9882812,86.9960938 C51.9882812,88.6601646 51.4023496,90.0781191 50.2304688,91.25 C49.0585879,92.4218809 47.6406333,93.0078125 45.9765625,93.0078125 C44.3124917,93.0078125 42.9003964,92.4218809 41.7402344,91.25 C40.5800723,90.0781191 40,88.6601646 40,86.9960938 C40,85.6835872 40.3691369,84.5117239 41.1074219,83.4804688 C41.8457068,82.4492136 42.8007754,81.734377 43.9726562,81.3359375 L43.9726562,64.6367188 C42.8007754,64.2382793 41.8457068,63.5234427 41.1074219,62.4921875 C40.3691369,61.4609323 40,60.2890691 40,58.9765625 C40,57.3359293 40.5800723,55.9296934 41.7402344,54.7578125 C42.9003964,53.5859316 44.3124917,53 45.9765625,53 C47.6406333,53 49.0585879,53.5859316 50.2304688,54.7578125 C51.4023496,55.9296934 51.9882812,57.3359293 51.9882812,58.9765625 C51.9882812,60.2890691 51.613285,61.4609323 50.8632812,62.4921875 C50.1132775,63.5234427 49.1523496,64.2382793 47.9804688,64.6367188 L47.9804688,75.21875 C48.8710982,74.5859343 49.9667904,74.0585959 51.2675781,73.6367188 C52.5683659,73.2148416 54.144522,73.0039062 55.9960938,73.0039062 C58.6679821,73.0039062 60.5429634,72.4824271 61.6210938,71.4394531 C62.6992241,70.3964792 63.3906235,69.429692 63.6953125,68.5390625 C62.6171821,68.0937478 61.726566,67.3730519 61.0234375,66.3769531 C60.320309,65.3808544 59.96875,64.2500063 59.96875,62.984375 C59.96875,61.3203042 60.5546816,59.9082089 61.7265625,58.7480469 C62.8984434,57.5878848 64.3163979,57.0078125 65.9804688,57.0078125 C67.6445396,57.0078125 69.0624941,57.5878848 70.234375,58.7480469 C71.4062559,59.9082089 71.9921875,61.3203042 71.9921875,62.984375 C71.9921875,64.3203192 71.5996133,65.521479 70.8144531,66.5878906 C70.0292929,67.6543022 69.0273498,68.3632795 67.8085938,68.7148438 C67.667968,69.4179723 67.4277361,70.2499952 67.0878906,71.2109375 C66.7480452,72.1718798 66.2089881,73.0800738 65.4707031,73.9355469 C64.7324182,74.7910199 63.7597717,75.5117158 62.5527344,76.0976562 C61.3456971,76.6835967 59.8281341,76.9765625 58,76.9765625 Z M45.9765625,84.9921875 C45.4374973,84.9921875 44.968752,85.1855449 44.5703125,85.5722656 C44.171873,85.9589863 43.9726562,86.4335909 43.9726562,86.9960938 C43.9726562,87.5351589 44.171873,88.0039043 44.5703125,88.4023438 C44.968752,88.8007832 45.4374973,89 45.9765625,89 C46.5390653,89 47.0136699,88.8007832 47.4003906,88.4023438 C47.7871113,88.0039043 47.9804688,87.5351589 47.9804688,86.9960938 C47.9804688,86.4335909 47.7871113,85.9589863 47.4003906,85.5722656 C47.0136699,85.1855449 46.5390653,84.9921875 45.9765625,84.9921875 Z M45.9765625,57.0078125 C45.4374973,57.0078125 44.968752,57.2011699 44.5703125,57.5878906 C44.171873,57.9746113 43.9726562,58.4374973 43.9726562,58.9765625 C43.9726562,59.5390653 44.171873,60.0136699 44.5703125,60.4003906 C44.968752,60.7871113 45.4374973,60.9804688 45.9765625,60.9804688 C46.5390653,60.9804688 47.0136699,60.7871113 47.4003906,60.4003906 C47.7871113,60.0136699 47.9804688,59.5390653 47.9804688,58.9765625 C47.9804688,58.4374973 47.7871113,57.9746113 47.4003906,57.5878906 C47.0136699,57.2011699 46.5390653,57.0078125 45.9765625,57.0078125 Z M65.9804688,60.9804688 C65.4414036,60.9804688 64.9726582,61.1796855 64.5742188,61.578125 C64.1757793,61.9765645 63.9765625,62.4453098 63.9765625,62.984375 C63.9765625,63.5468778 64.1757793,64.0214824 64.5742188,64.4082031 C64.9726582,64.7949238 65.4414036,64.9882812 65.9804688,64.9882812 C66.5429716,64.9882812 67.0175762,64.7949238 67.4042969,64.4082031 C67.7910176,64.0214824 67.984375,63.5468778 67.984375,62.984375 C67.984375,62.4453098 67.7910176,61.9765645 67.4042969,61.578125 C67.0175762,61.1796855 66.5429716,60.9804688 65.9804688,60.9804688 Z" id="" fill="#FF990C"></path>
            </g>
        </g>
    </g>
</svg>