<?xml version="1.0" encoding="UTF-8"?>
<svg width="96px" height="107px" viewBox="0 0 96 107" version="1.1" xmlns="http://www.w3.org/2000/svg" xmlns:xlink="http://www.w3.org/1999/xlink">
    <!-- Generator: Sketch 57.1 (83088) - https://sketch.com -->
    <title>HTML</title>
    <desc>Created with Sketch.</desc>
    <g id="Page-1" stroke="none" stroke-width="1" fill="none" fill-rule="evenodd">
        <g id="Artboard" transform="translate(-1959.000000, -564.000000)">
            <g id="HTML" transform="translate(1959.000000, 564.000000)">
                <polygon id="Shape-Copy-123" fill="#11907C" fill-rule="nonzero" points="95.7694398 106.362769 14 106.362769 14 0 70.2164899 0 95.7694398 25.3244688"></polygon>
                <polygon id="Shape-Copy-122" fill="#37D2BA" fill-rule="nonzero" points="92.2753025 28.0582454 68 28.0582454 68 4"></polygon>
                <rect id="Rectangle-5-Copy-98" fill="#0D6254" x="0" y="16" width="55" height="28" rx="4"></rect>
                <path d="M15.9155273,36 L13.425293,36 L13.425293,30.8203125 L8.56933594,30.8203125 L8.56933594,36 L6.07910156,36 L6.07910156,23.9140625 L8.56933594,23.9140625 L8.56933594,28.8115234 L13.425293,28.8115234 L13.425293,23.9140625 L15.9155273,23.9140625 L15.9155273,36 Z M26.5152656,25.9311523 L22.8131172,25.9311523 L22.8131172,36 L20.3228828,36 L20.3228828,25.9311523 L16.6705391,25.9311523 L16.6705391,23.9140625 L26.5152656,23.9140625 L26.5152656,25.9311523 Z M30.7566054,23.9140625 L33.8610976,32.6796875 L36.9489883,23.9140625 L40.2194961,23.9140625 L40.2194961,36 L37.7209609,36 L37.7209609,32.6962891 L37.9699844,26.9936523 L34.7077773,36 L32.9978164,36 L29.7439101,27.0019531 L29.9929336,32.6962891 L29.9929336,36 L27.5026992,36 L27.5026992,23.9140625 L30.7566054,23.9140625 Z M44.4525351,33.9995117 L49.7401328,33.9995117 L49.7401328,36 L41.9623007,36 L41.9623007,23.9140625 L44.4525351,23.9140625 L44.4525351,33.9995117 Z" fill="#37D2BA"></path>
                <path d="M33,71.9765625 L47.9765625,86.953125 L53.671875,81.2578125 L44.3203125,71.9765625 L53.671875,62.625 L47.9765625,57 L33,71.9765625 Z M77.6484375,71.9765625 L62.671875,57 L56.9765625,62.625 L66.328125,71.9765625 L56.9765625,81.2578125 L62.671875,86.953125 L77.6484375,71.9765625 Z" id="" fill="#37D2BA"></path>
            </g>
        </g>
    </g>
</svg>