<?xml version="1.0" encoding="UTF-8"?>
<svg width="96px" height="107px" viewBox="0 0 96 107" version="1.1" xmlns="http://www.w3.org/2000/svg" xmlns:xlink="http://www.w3.org/1999/xlink">
    <!-- Generator: Sketch 57.1 (83088) - https://sketch.com -->
    <title>Indesign</title>
    <desc>Created with Sketch.</desc>
    <g id="Page-1" stroke="none" stroke-width="1" fill="none" fill-rule="evenodd">
        <g id="Artboard" transform="translate(-1510.000000, -128.000000)">
            <g id="Indesign" transform="translate(1510.000000, 128.000000)">
                <polygon id="Shape-Copy-213" fill="#8B194D" fill-rule="nonzero" points="95.7694398 106.362769 14 106.362769 14 0 70.2164899 0 95.7694398 25.3244688"></polygon>
                <polygon id="Shape-Copy-212" fill="#FF2C8E" fill-rule="nonzero" points="92.2753025 28.0582454 68 28.0582454 68 4"></polygon>
                <rect id="Rectangle-5-Copy-176" fill="#5E1034" x="0" y="16" width="55" height="28" rx="4"></rect>
                <path d="M16.9462891,37 L14.3095703,37 L14.3095703,24.203125 L16.9462891,24.203125 L16.9462891,37 Z M29.3638984,37 L26.7271797,37 L21.5943672,28.5800781 L21.5943672,37 L18.9576484,37 L18.9576484,24.203125 L21.5943672,24.203125 L26.7359687,32.640625 L26.7359687,24.203125 L29.3638984,24.203125 L29.3638984,37 Z M31.2346328,37 L31.2346328,24.203125 L35.1721328,24.203125 C36.2971384,24.203125 37.303476,24.4565404 38.1911758,24.9633789 C39.0788755,25.4702174 39.7717397,26.1909133 40.269789,27.1254883 C40.7678384,28.0600633 41.0168594,29.1220644 41.0168594,30.3115234 L41.0168594,30.9003906 C41.0168594,32.0898497 40.7722329,33.1474563 40.2829726,34.0732422 C39.7937124,34.9990281 39.1037779,35.7167943 38.2131484,36.2265625 C37.322519,36.7363307 36.3176462,36.9941406 35.1985,37 L31.2346328,37 Z M33.8713515,26.3388672 L33.8713515,34.8818359 L35.1457656,34.8818359 C36.1770208,34.8818359 36.9650988,34.5449252 37.5100234,33.8710938 C38.054948,33.1972623 38.3332655,32.2334047 38.3449844,30.9794922 L38.3449844,30.3027344 C38.3449844,29.0019466 38.0754558,28.0161166 37.5363906,27.3452148 C36.9973254,26.6743131 36.2092474,26.3388672 35.1721328,26.3388672 L33.8713515,26.3388672 Z" id="IND" fill="#FF2F8F"></path>
                <path d="M68.3005272,53 L68.3005272,73.3575489 L59.0323141,81.6826807 L59.0323141,61.3251318 L68.3005272,53 Z M45.1787744,58.5284078 C46.0676601,58.5284078 46.9727924,58.5826074 47.8941983,58.6910081 C48.8156042,58.7994088 49.7153165,58.9620074 50.5933621,59.1788088 C51.4714078,59.3956102 52.3169205,59.6774477 53.1299257,60.02433 C53.9429309,60.3712122 54.6854646,60.8048085 55.3575489,61.3251318 L55.3575489,86.3005272 C55.9645928,85.9102847 56.6908665,85.5417279 57.536392,85.1948457 C58.3819174,84.8479634 59.2653698,84.555286 60.1867757,84.3168044 C61.1081816,84.0783229 62.0295737,83.8832046 62.9509797,83.7314436 C63.8723856,83.5796826 64.7341582,83.5038033 65.5363233,83.5038033 C66.6420104,83.5038033 67.742261,83.5796826 68.837108,83.7314436 C69.931955,83.8832046 70.988846,84.1216825 72.0078125,84.4468846 L72.0078125,59.4714892 C72.701577,59.7099707 73.3519714,59.9755484 73.9590153,60.2682303 C74.5660592,60.5609122 75.1405742,60.9132092 75.6825777,61.3251318 L75.6825777,88.3167701 C75.6825777,88.5335715 75.5904385,88.7395297 75.4061573,88.934651 C75.2218761,89.1297722 75.010498,89.2273314 74.7720164,89.2273314 C74.6852959,89.2273314 74.6094165,89.2327513 74.5443761,89.2435914 C74.4793357,89.2544315 74.4034563,89.2381716 74.3167358,89.1948113 C73.0159274,88.5010469 71.6067395,87.9969912 70.0891298,87.6826292 C68.57152,87.3682672 67.0539331,87.2110885 65.5363233,87.2110885 C64.7341582,87.2110885 63.8723856,87.2815479 62.9509797,87.4224688 C62.0295737,87.5633897 61.1081816,87.7585081 60.1867757,88.0078297 C59.2653698,88.2571513 58.3819174,88.5498288 57.536392,88.8858709 C56.6908665,89.2219131 55.9645928,89.5958899 55.3575489,90.0078125 C54.6854646,89.4874892 53.9429309,89.0538929 53.1299257,88.7070107 C52.3169205,88.3601284 51.4714078,88.0728709 50.5933621,87.8452294 C49.7153165,87.617588 48.8156042,87.4549894 47.8941983,87.3574287 C46.9727924,87.2598681 46.0676601,87.2110885 45.1787744,87.2110885 C43.8346058,87.2110885 42.3441186,87.395367 40.7072681,87.7639293 C39.0704176,88.1324917 37.6341299,88.6202875 36.398362,89.2273314 C36.2899613,89.2273314 36.208662,89.2490112 36.1544616,89.2923715 C36.1002613,89.3357318 36.018962,89.3574116 35.9105613,89.3574116 C35.6937599,89.3574116 35.4878017,89.2598524 35.2926804,89.0647312 C35.0975592,88.8696099 35,88.6636517 35,88.4468503 L35,61.3251318 C35.6720843,60.8048085 36.409198,60.3712122 37.2113631,60.02433 C38.0135283,59.6774477 38.8536211,59.3956102 39.7316667,59.1788088 C40.6097123,58.9620074 41.5094246,58.7994088 42.4308305,58.6910081 C43.3522365,58.5826074 44.2682086,58.5284078 45.1787744,58.5284078 Z" id="" fill="#FF2C8E"></path>
            </g>
        </g>
    </g>
</svg>