<?xml version="1.0" encoding="UTF-8"?>
<svg width="96px" height="107px" viewBox="0 0 96 107" version="1.1" xmlns="http://www.w3.org/2000/svg" xmlns:xlink="http://www.w3.org/1999/xlink">
    <!-- Generator: Sketch 57.1 (83088) - https://sketch.com -->
    <title>Log</title>
    <desc>Created with Sketch.</desc>
    <g id="Page-1" stroke="none" stroke-width="1" fill="none" fill-rule="evenodd">
        <g id="Artboard" transform="translate(-1959.000000, -420.000000)">
            <g id="Log" transform="translate(1959.000000, 420.000000)">
                <polygon id="Shape-Copy-3" fill="#1C5DA4" fill-rule="nonzero" points="95.7694398 106.362769 14 106.362769 14 0 70.2164899 0 95.7694398 25.3244688"></polygon>
                <polygon id="Shape-Copy-2" fill="#7BB6F6" fill-rule="nonzero" points="92.0602487 27.5664421 67.7849462 27.5664421 67.7849462 3.50819672"></polygon>
                <rect id="Rectangle-5-Copy-192" fill="#2C7ACD" x="0" y="16" width="55" height="28" rx="4"></rect>
                <text id="LOG" font-family="Roboto-Bold, Roboto" font-size="17" font-weight="bold" letter-spacing="-0.432" fill="#7BB6F6">
                    <tspan x="9" y="36">LOG</tspan>
                </text>
                <path d="M68.3007812,58 L70.6210938,66.6835938 L68.7226562,67.2109375 C68.2773415,66.3437457 67.8203148,65.5117227 67.3515625,64.7148438 C66.8828102,63.9179648 66.3789089,63.2968772 65.8398438,62.8515625 C65.3007786,62.4062478 64.7324249,62.1484379 64.1347656,62.078125 C63.5371064,62.0078121 62.9335968,61.9726562 62.3242188,61.9726562 L57.3320312,61.9726562 L57.3320312,82.9960938 C57.3320312,83.4882837 57.3554685,83.9628883 57.4023438,84.4199219 C57.449219,84.8769554 57.6367171,85.2343737 57.9648438,85.4921875 C58.316408,85.7265637 58.796872,85.8671873 59.40625,85.9140625 C60.015628,85.9609377 60.6484342,85.984375 61.3046875,85.984375 L61.3046875,87.9882812 L49.3164062,87.9882812 L49.3164062,85.984375 C49.9960971,85.984375 50.6347626,85.9609377 51.2324219,85.9140625 C51.8300811,85.8671873 52.3046857,85.7265637 52.65625,85.4921875 C52.9843766,85.2343737 53.1777341,84.8769554 53.2363281,84.4199219 C53.2949222,83.9628883 53.3242188,83.4882837 53.3242188,82.9960938 L53.3242188,61.9726562 L48.3320312,61.9726562 C47.7226532,61.9726562 47.1132843,62.0078121 46.5039062,62.078125 C45.8945282,62.1484379 45.3203152,62.4062478 44.78125,62.8515625 C44.2656224,63.2968772 43.7734398,63.9179648 43.3046875,64.7148438 C42.8359352,65.5117227 42.3789085,66.3437457 41.9335938,67.2109375 L40,66.6835938 L42.3203125,58 L68.3007812,58 Z" id="" fill="#7BB6F6"></path>
            </g>
        </g>
    </g>
</svg>