<?xml version="1.0" encoding="UTF-8"?>
<svg width="96px" height="107px" viewBox="0 0 96 107" version="1.1" xmlns="http://www.w3.org/2000/svg" xmlns:xlink="http://www.w3.org/1999/xlink">
    <!-- Generator: Sketch 57.1 (83088) - https://sketch.com -->
    <title>Light Room</title>
    <desc>Created with Sketch.</desc>
    <g id="Page-1" stroke="none" stroke-width="1" fill="none" fill-rule="evenodd">
        <g id="Artboard" transform="translate(-2107.000000, -128.000000)">
            <g id="Light-Room" transform="translate(2107.000000, 128.000000)">
                <polygon id="Shape-Copy-213" fill="#082531" fill-rule="nonzero" points="95.7694398 106.362769 14 106.362769 14 0 70.2164899 0 95.7694398 25.3244688"></polygon>
                <polygon id="Shape-Copy-212" fill="#A7CFE9" fill-rule="nonzero" points="92.2753025 28.0582454 68 28.0582454 68 4"></polygon>
                <rect id="Rectangle-5-Copy-176" fill="#000000" x="0" y="16" width="55" height="28" rx="4"></rect>
                <path d="M19.7792969,34.8818359 L25.3779297,34.8818359 L25.3779297,37 L17.1425781,37 L17.1425781,24.203125 L19.7792969,24.203125 L19.7792969,34.8818359 Z M31.1949531,32.3154297 L29.0943672,32.3154297 L29.0943672,37 L26.4576484,37 L26.4576484,24.203125 L31.2125312,24.203125 C32.7242575,24.203125 33.8902615,24.5400357 34.7105781,25.2138672 C35.5308947,25.8876987 35.9410469,26.8398376 35.9410469,28.0703125 C35.9410469,28.9433637 35.7520839,29.6713838 35.3741523,30.2543945 C34.9962208,30.8374053 34.4234726,31.3017561 33.6558906,31.6474609 L36.4244453,36.8769531 L36.4244453,37 L33.5943672,37 L31.1949531,32.3154297 Z M29.0943672,30.1796875 L31.2213203,30.1796875 C31.883433,30.1796875 32.3961232,30.0112322 32.7594062,29.6743164 C33.1226893,29.3374007 33.3043281,28.8730498 33.3043281,28.28125 C33.3043281,27.6777314 33.1329431,27.2031267 32.790168,26.8574219 C32.4473928,26.511717 31.9215192,26.3388672 31.2125312,26.3388672 L29.0943672,26.3388672 L29.0943672,30.1796875 Z" id="LR" fill="#A7CFE9"></path>
                <path d="M55.0273438,52 C56.9492284,52 58.7597571,52.3632776 60.4589844,53.0898438 C62.1582116,53.8164099 63.6406187,54.8124937 64.90625,56.078125 C66.1718813,57.3437563 67.1738244,58.8261634 67.9121094,60.5253906 C68.6503943,62.2246179 69.0195312,64.0468653 69.0195312,65.9921875 C69.0195312,67.187506 68.8789077,68.335932 68.5976562,69.4375 C68.3164048,70.539068 67.912112,71.5820263 67.3847656,72.5664062 C66.8574192,73.5507862 66.2246131,74.4531209 65.4863281,75.2734375 C64.7480432,76.0937541 63.9218796,76.832028 63.0078125,77.4882812 L63.0078125,81.9882812 C63.0078125,82.5507841 62.8144551,83.0253887 62.4277344,83.4121094 C62.0410137,83.7988301 61.5664091,83.9921875 61.0039062,83.9921875 L49.015625,83.9921875 C48.4765598,83.9921875 48.0078145,83.7988301 47.609375,83.4121094 C47.2109355,83.0253887 47.0117188,82.5507841 47.0117188,81.9882812 L47.0117188,77.4882812 C46.0976517,76.832028 45.2773474,76.0937541 44.5507812,75.2734375 C43.8242151,74.4531209 43.1972683,73.5507862 42.6699219,72.5664062 C42.1425755,71.5820263 41.7324233,70.539068 41.4394531,69.4375 C41.1464829,68.335932 41,67.187506 41,65.9921875 C41,64.0468653 41.3691369,62.2246179 42.1074219,60.5253906 C42.8457068,58.8261634 43.8476499,57.3437563 45.1132812,56.078125 C46.3789126,54.8124937 47.8613196,53.8164099 49.5605469,53.0898438 C51.2597741,52.3632776 53.0820215,52 55.0273438,52 Z M49.015625,90.0039062 L49.015625,88 L61.0039062,88 L61.0039062,90.0039062 C61.0039062,90.5429714 60.8105488,91.0117168 60.4238281,91.4101562 C60.0371074,91.8085957 59.5625028,92.0078125 59,92.0078125 L51.0195312,92.0078125 C50.4570284,92.0078125 49.9824238,91.8085957 49.5957031,91.4101562 C49.2089824,91.0117168 49.015625,90.5429714 49.015625,90.0039062 Z M55.0273438,56.0078125 C53.6445243,56.0078125 52.3437561,56.2656224 51.125,56.78125 C49.9062439,57.2968776 48.8457076,58.0117142 47.9433594,58.9257812 C47.0410111,59.8398483 46.3261745,60.9003846 45.7988281,62.1074219 C45.2714817,63.3144592 45.0078125,64.6093681 45.0078125,65.9921875 C45.0078125,67.0234427 45.1542954,68.0078125 45.4472656,68.9453125 C45.7402358,69.8828172 46.150388,70.7441367 46.6777344,71.5292969 C47.2050808,72.3144571 47.8378869,73.017575 48.5761719,73.6386719 C49.3144568,74.2597687 50.1289018,74.7695293 51.0195312,75.1679688 L51.0195312,79.984375 L59,79.984375 L59,75.1679688 C59.8906295,74.7695293 60.7050744,74.2597687 61.4433594,73.6386719 C62.1816443,73.017575 62.8144505,72.3144571 63.3417969,71.5292969 C63.8691433,70.7441367 64.2792954,69.8828172 64.5722656,68.9453125 C64.8652358,68.0078125 65.0117188,67.0234427 65.0117188,65.9921875 C65.0117188,64.6093681 64.7480495,63.3144592 64.2207031,62.1074219 C63.6933567,60.9003846 62.9785201,59.8398483 62.0761719,58.9257812 C61.1738236,58.0117142 60.1191467,57.2968776 58.9121094,56.78125 C57.7050721,56.2656224 56.4101632,56.0078125 55.0273438,56.0078125 Z" id="" fill="#A7CFE9"></path>
            </g>
        </g>
    </g>
</svg>