<?xml version="1.0" encoding="UTF-8"?>
<svg width="96px" height="107px" viewBox="0 0 96 107" version="1.1" xmlns="http://www.w3.org/2000/svg" xmlns:xlink="http://www.w3.org/1999/xlink">
    <!-- Generator: Sketch 57.1 (83088) - https://sketch.com -->
    <title>MDB File</title>
    <desc>Created with Sketch.</desc>
    <g id="Page-1" stroke="none" stroke-width="1" fill="none" fill-rule="evenodd">
        <g id="Artboard" transform="translate(-1657.000000, -274.000000)">
            <g id="MDB-File" transform="translate(1657.000000, 274.000000)">
                <polygon id="Shape-Copy-243" fill="#A63A3D" fill-rule="nonzero" points="95.7694398 106.362769 14 106.362769 14 0 70.2164899 0 95.7694398 25.3244688"></polygon>
                <polygon id="Shape-Copy-242" fill="#EB6D71" fill-rule="nonzero" points="92.2753025 28.0582454 68 28.0582454 68 4"></polygon>
                <rect id="Rectangle-5-Copy-202" fill="#5C1C1E" x="0" y="16" width="55" height="28" rx="4"></rect>
                <path d="M14.3330078,23.9140625 L17.4375,32.6796875 L20.5253906,23.9140625 L23.7958984,23.9140625 L23.7958984,36 L21.2973633,36 L21.2973633,32.6962891 L21.5463867,26.9936523 L18.2841797,36 L16.5742188,36 L13.3203125,27.0019531 L13.5693359,32.6962891 L13.5693359,36 L11.0791016,36 L11.0791016,23.9140625 L14.3330078,23.9140625 Z M25.5387031,36 L25.5387031,23.9140625 L29.2574531,23.9140625 C30.3199584,23.9140625 31.2703884,24.1533993 32.1087715,24.6320801 C32.9471546,25.1107609 33.6015263,25.7914181 34.0719062,26.6740723 C34.5422862,27.5567264 34.7774726,28.5597275 34.7774726,29.6831055 L34.7774726,30.2392578 C34.7774726,31.3626358 34.5464365,32.3614865 34.0843574,33.2358398 C33.6222783,34.1101932 32.9706735,34.7880835 32.1295234,35.2695312 C31.2883734,35.750979 30.3393269,35.9944661 29.2823555,36 L25.5387031,36 Z M28.0289375,25.9311523 L28.0289375,33.9995117 L29.2325508,33.9995117 C30.206514,33.9995117 30.9508099,33.6813183 31.4654609,33.0449219 C31.9801119,32.4085255 32.2429674,31.4982156 32.2540351,30.3139648 L32.2540351,29.6748047 C32.2540351,28.4462829 31.9994804,27.5152213 31.4903633,26.8815918 C30.9812461,26.2479623 30.2369502,25.9311523 29.2574531,25.9311523 L28.0289375,25.9311523 Z M36.1550429,36 L36.1550429,23.9140625 L40.3884414,23.9140625 C41.8549201,23.9140625 42.9672136,24.1949028 43.7253554,24.7565918 C44.4834973,25.3182808 44.8625625,26.1414334 44.8625625,27.2260742 C44.8625625,27.8181996 44.710383,28.3397601 44.4060195,28.7907715 C44.101656,29.2417829 43.6783204,29.5724273 43.136,29.7827148 C43.7557947,29.9376635 44.2441525,30.2503232 44.6010879,30.7207031 C44.9580232,31.1910831 45.1364883,31.7665982 45.1364883,32.4472656 C45.1364883,33.6093808 44.7657237,34.4892548 44.0241836,35.0869141 C43.2826434,35.6845733 42.2256878,35.9889322 40.8532851,36 L36.1550429,36 Z M38.6452773,30.7373047 L38.6452773,33.9995117 L40.7785781,33.9995117 C41.3651696,33.9995117 41.8230914,33.8597833 42.1523574,33.5803223 C42.4816234,33.3008612 42.6462539,32.9148788 42.6462539,32.4223633 C42.6462539,31.3155869 42.0735057,30.7539063 40.9279922,30.7373047 L38.6452773,30.7373047 Z M38.6452773,28.9775391 L40.4880508,28.9775391 C41.7442419,28.9554035 42.3723281,28.4545947 42.3723281,27.4750977 C42.3723281,26.9272434 42.2132314,26.5329602 41.8950332,26.2922363 C41.576835,26.0515125 41.0746427,25.9311523 40.3884414,25.9311523 L38.6452773,25.9311523 L38.6452773,28.9775391 Z" id="MDB" fill="#EB6D71"></path>
                <path d="M37.0039062,50 L68.9960938,50 C69.5351589,50 70.0039043,50.1933574 70.4023438,50.5800781 C70.8007832,50.9667988 71,51.4414034 71,52.0039062 L71,59.984375 C71,60.5468778 70.8007832,61.0214824 70.4023438,61.4082031 C70.0039043,61.7949238 69.5351589,61.9882812 68.9960938,61.9882812 L37.0039062,61.9882812 C36.4414034,61.9882812 35.9667988,61.7949238 35.5800781,61.4082031 C35.1933574,61.0214824 35,60.5468778 35,59.984375 L35,52.0039062 C35,51.4414034 35.1933574,50.9667988 35.5800781,50.5800781 C35.9667988,50.1933574 36.4414034,50 37.0039062,50 Z M37.0039062,65.9960938 L68.9960938,65.9960938 C69.5351589,65.9960938 70.0039043,66.1894512 70.4023438,66.5761719 C70.8007832,66.9628926 71,67.4374972 71,68 L71,69.3359375 L66.0078125,67.1210938 L53,72.8867188 L53,77.984375 L37.0039062,77.984375 C36.4414034,77.984375 35.9667988,77.7910176 35.5800781,77.4042969 C35.1933574,77.0175762 35,76.5429716 35,75.9804688 L35,68 C35,67.4374972 35.1933574,66.9628926 35.5800781,66.5761719 C35.9667988,66.1894512 36.4414034,65.9960938 37.0039062,65.9960938 Z M37.0039062,81.9921875 L53,81.9921875 C53.0234376,83.1171931 53.1582019,84.2246039 53.4042969,85.3144531 C53.6503919,86.4043023 53.9843729,87.4589793 54.40625,88.4785156 C54.8281271,89.498052 55.3378876,90.4706985 55.9355469,91.3964844 C56.5332061,92.3222703 57.1953089,93.1835898 57.921875,93.9804688 L37.0039062,93.9804688 C36.4414034,93.9804688 35.9667988,93.7871113 35.5800781,93.4003906 C35.1933574,93.0136699 35,92.5507839 35,92.0117188 L35,83.9960938 C35,83.4570286 35.1933574,82.9882832 35.5800781,82.5898438 C35.9667988,82.1914043 36.4414034,81.9921875 37.0039062,81.9921875 Z M46.9882812,57.9804688 L48.9921875,57.9804688 L48.9921875,54.0078125 L46.9882812,54.0078125 L46.9882812,57.9804688 Z M46.9882812,74.0117188 L48.9921875,74.0117188 L48.9921875,70.0039062 L46.9882812,70.0039062 L46.9882812,74.0117188 Z M46.9882812,90.0078125 L48.9921875,90.0078125 L48.9921875,86 L46.9882812,86 L46.9882812,90.0078125 Z M39.0078125,54.0078125 L39.0078125,57.9804688 L42.9804688,57.9804688 L42.9804688,54.0078125 L39.0078125,54.0078125 Z M39.0078125,70.0039062 L39.0078125,74.0117188 L42.9804688,74.0117188 L42.9804688,70.0039062 L39.0078125,70.0039062 Z M39.0078125,86 L39.0078125,90.0078125 L42.9804688,90.0078125 L42.9804688,86 L39.0078125,86 Z M66.0078125,72.0078125 L75.0078125,75.9804688 L75.0078125,81.9921875 C75.0078125,83.3750069 74.7792992,84.7226497 74.3222656,86.0351562 C73.8652321,87.3476628 73.2324259,88.537104 72.4238281,89.6035156 C71.6152303,90.6699272 70.6660211,91.5898399 69.5761719,92.3632812 C68.4863227,93.1367226 67.2968814,93.6757797 66.0078125,93.9804688 C64.7187436,93.6757797 63.523443,93.1367226 62.421875,92.3632812 C61.320307,91.5898399 60.3652384,90.6699272 59.5566406,89.6035156 C58.7480428,88.537104 58.121096,87.3476628 57.6757812,86.0351562 C57.2304665,84.7226497 57.0078125,83.3750069 57.0078125,81.9921875 L57.0078125,75.9804688 L66.0078125,72.0078125 Z M66.0078125,75.875 L60.9804688,78.125 L60.9804688,83.4335938 C60.9804688,84.9804765 61.4609327,86.3925717 62.421875,87.6699219 C63.3828173,88.947272 64.5781179,89.761717 66.0078125,90.1132812 L66.0078125,75.875 Z" id="" fill="#EB6D71"></path>
            </g>
        </g>
    </g>
</svg>