<?xml version="1.0" encoding="UTF-8"?>
<svg width="96px" height="107px" viewBox="0 0 96 107" version="1.1" xmlns="http://www.w3.org/2000/svg" xmlns:xlink="http://www.w3.org/1999/xlink">
    <!-- Generator: Sketch 57.1 (83088) - https://sketch.com -->
    <title>MPP</title>
    <desc>Created with Sketch.</desc>
    <g id="Page-1" stroke="none" stroke-width="1" fill="none" fill-rule="evenodd">
        <g id="Artboard" transform="translate(-1806.000000, -1428.000000)">
            <g id="MPP" transform="translate(1806.000000, 1428.000000)">
                <polygon id="Shape-Copy-243" fill="#B9B8A2" fill-rule="nonzero" points="95.7694398 106.362769 14 106.362769 14 0 70.2164899 0 95.7694398 25.3244688"></polygon>
                <polygon id="Shape-Copy-242" fill="#E2E0C1" fill-rule="nonzero" points="92.2753025 28.0582454 68 28.0582454 68 4"></polygon>
                <rect id="Rectangle-5-Copy-202" fill="#7E7F72" x="0" y="16" width="55" height="28" rx="4"></rect>
                <text font-family="Roboto-Bold, Roboto" font-size="17" font-weight="bold" letter-spacing="-0.432" fill="#E2E0C1">
                    <tspan x="10" y="36">MPP</tspan>
                </text>
                <polygon id="Rectangle-path" fill="#E2E0C1" fill-rule="nonzero" points="36 81 47 81 47 92 36 92"></polygon>
                <ellipse id="Oval" fill="#E2E0C1" fill-rule="nonzero" cx="41.5533575" cy="61.2526316" rx="6.55335748" ry="6.56842105"></ellipse>
                <ellipse id="Oval" fill="#E2E0C1" fill-rule="nonzero" cx="67.7667874" cy="86.4315789" rx="6.55335748" ry="6.56842105"></ellipse>
                <rect id="Rectangle-path" fill="#E2E0C1" fill-rule="nonzero" x="40.3175676" y="73.2727273" width="2.31756757" height="5.45454544"></rect>
                <polygon id="Shape" fill="#E2E0C1" fill-rule="nonzero" points="41.4763514 70 38 74.3636364 44.9527027 74.3636364"></polygon>
                <polygon id="Rectangle-path" fill="#E2E0C1" fill-rule="nonzero" points="50 60.3333333 55.4176904 60.3333333 55.4176904 62.6666667 50 62.6666667"></polygon>
                <polygon id="Shape" fill="#E2E0C1" fill-rule="nonzero" points="58.6683047 61.5 54.3341523 58 54.3341523 65"></polygon>
                <rect id="Rectangle-path" fill="#E2E0C1" fill-rule="nonzero" x="66.3175676" y="70" width="2.31756757" height="5.45454544"></rect>
                <polygon id="Shape" fill="#E2E0C1" fill-rule="nonzero" points="67.4763514 78.7272727 70.9527027 74.3636364 64 74.3636364"></polygon>
                <polygon id="Rectangle-path" fill="#E2E0C1" fill-rule="nonzero" points="50 60.3333333 55.4176904 60.3333333 55.4176904 62.6666667 50 62.6666667"></polygon>
                <polygon id="Shape" fill="#E2E0C1" fill-rule="nonzero" points="58.6683047 61.5 54.3341523 58 54.3341523 65"></polygon>
                <rect id="Rectangle-path" fill="#E2E0C1" fill-rule="nonzero" x="66.3175676" y="70" width="2.31756757" height="5.45454544"></rect>
                <polygon id="Shape" fill="#E2E0C1" fill-rule="nonzero" points="67.4763514 78.7272727 70.9527027 74.3636364 64 74.3636364"></polygon>
                <path d="M67.002229,68.1494737 L60.8857621,62.0189474 C60.4488715,61.5810526 60.4488715,60.9242105 60.8857621,60.4863158 L67.002229,54.3557895 C67.4391195,53.9178947 68.0944553,53.9178947 68.5313458,54.3557895 L74.6478127,60.4863158 C75.0847033,60.9242105 75.0847033,61.5810526 74.6478127,62.0189474 L68.5313458,68.1494737 C68.0944553,68.5873684 67.4391195,68.5873684 67.002229,68.1494737 Z" id="Shape" fill="#E2E0C1" fill-rule="nonzero"></path>
            </g>
        </g>
    </g>
</svg>