<?xml version="1.0" encoding="UTF-8"?>
<svg width="96px" height="107px" viewBox="0 0 96 107" version="1.1" xmlns="http://www.w3.org/2000/svg" xmlns:xlink="http://www.w3.org/1999/xlink">
    <!-- Generator: Sketch 57.1 (83088) - https://sketch.com -->
    <title>MPT</title>
    <desc>Created with Sketch.</desc>
    <g id="Page-1" stroke="none" stroke-width="1" fill="none" fill-rule="evenodd">
        <g id="Artboard" transform="translate(-1959.000000, -1428.000000)">
            <g id="MPT" transform="translate(1959.000000, 1428.000000)">
                <polygon id="Shape-Copy-246" fill="#7BB6F6" fill-rule="nonzero" points="92.2753025 28.0582454 68 28.0582454 68 4"></polygon>
                <rect id="Rectangle-5-Copy-205" fill="#2C7ACD" x="0" y="16" width="55" height="28" rx="4"></rect>
                <text id="DOC-Copy-145" font-family="Roboto-Bold, Roboto" font-size="18" font-weight="bold" letter-spacing="-0.432" fill="#7BB6F6">
                    <tspan x="9" y="37">DO</tspan>
                    <tspan x="32.2619766" y="37" letter-spacing="-0.5184">C</tspan>
                </text>
                <polygon id="Path-Copy-157" fill="#76B1F1" points="40 67.9174837 41.9449891 67.9174837 41.9449891 85.4227912 48.2664065 85.4227912 53.1288793 76.7714812 53.1288793 85.4227912 58.9638467 85.4227912 67.7165005 67.9174837 69.6614896 67.9174837 69.6614896 65 60.9090385 65 60.9090385 67.9174837 62.3677803 67.9174837 58.9638467 74.6238046 58.9638467 65 52.1563847 65 46.3212147 75.9814054 46.3212147 67.9174837 48.2664065 67.9174837 48.2664065 65 40 65"></polygon>
                <polygon id="Shape-Copy-245" fill="#7BB6F6" fill-rule="nonzero" points="92.2753025 28.0582454 68 28.0582454 68 4"></polygon>
                <rect id="Rectangle-5-Copy-204" fill="#2C7ACD" x="0" y="16" width="55" height="28" rx="4"></rect>
                <text id="DOC-Copy-144" font-family="Roboto-Bold, Roboto" font-size="18" font-weight="bold" letter-spacing="-0.432" fill="#7BB6F6">
                    <tspan x="9" y="37">DO</tspan>
                    <tspan x="32.2619766" y="37" letter-spacing="-0.5184">C</tspan>
                </text>
                <polygon id="Path-Copy-156" fill="#FFFFFF" points="35 63.9009303 37.6006202 63.9009303 37.6006202 87.307054 46.0529068 87.307054 52.5544573 75.7394976 52.5544573 87.307054 60.3563178 87.307054 72.0593797 63.9009303 74.6599998 63.9009303 74.6599998 60 62.957209 60 62.957209 63.9009303 64.9076742 63.9009303 60.3563178 72.8678665 60.3563178 60 51.2541472 60 43.4520156 74.6830972 43.4520156 63.9009303 46.0529068 63.9009303 46.0529068 60 35 60"></polygon>
                <polygon id="Shape-Copy-244" fill="#7BB6F6" fill-rule="nonzero" points="92.2753025 28.0582454 68 28.0582454 68 4"></polygon>
                <rect id="Rectangle-5-Copy-203" fill="#2C7ACD" x="0" y="16" width="55" height="28" rx="4"></rect>
                <text id="DOC-Copy-143" font-family="Roboto-Bold, Roboto" font-size="18" font-weight="bold" letter-spacing="-0.432" fill="#7BB6F6">
                    <tspan x="9" y="37">DO</tspan>
                    <tspan x="32.2619766" y="37" letter-spacing="-0.5184">C</tspan>
                </text>
                <polygon id="Path-Copy-155" fill="#76B1F1" points="40 67.9174837 41.9449891 67.9174837 41.9449891 85.4227912 48.2664065 85.4227912 53.1288793 76.7714812 53.1288793 85.4227912 58.9638467 85.4227912 67.7165005 67.9174837 69.6614896 67.9174837 69.6614896 65 60.9090385 65 60.9090385 67.9174837 62.3677803 67.9174837 58.9638467 74.6238046 58.9638467 65 52.1563847 65 46.3212147 75.9814054 46.3212147 67.9174837 48.2664065 67.9174837 48.2664065 65 40 65"></polygon>
                <polygon id="Shape-Copy-243" fill="#B9B8A2" fill-rule="nonzero" points="95.7694398 106.362769 14 106.362769 14 0 70.2164899 0 95.7694398 25.3244688"></polygon>
                <polygon id="Shape-Copy-242" fill="#E2E0C1" fill-rule="nonzero" points="92.2753025 28.0582454 68 28.0582454 68 4"></polygon>
                <rect id="Rectangle-5-Copy-202" fill="#7E7F72" x="0" y="16" width="55" height="28" rx="4"></rect>
                <text font-family="Roboto-Bold, Roboto" font-size="17" font-weight="bold" letter-spacing="-0.432" fill="#E2E0C1">
                    <tspan x="10" y="36">MPT</tspan>
                </text>
                <polygon id="Rectangle-path" fill="#E2E0C1" fill-rule="nonzero" points="36 81 47 81 47 92 36 92"></polygon>
                <path d="M67.002229,68.1494737 L60.8857621,62.0189474 C60.4488715,61.5810526 60.4488715,60.9242105 60.8857621,60.4863158 L67.002229,54.3557895 C67.4391195,53.9178947 68.0944553,53.9178947 68.5313458,54.3557895 L74.6478127,60.4863158 C75.0847033,60.9242105 75.0847033,61.5810526 74.6478127,62.0189474 L68.5313458,68.1494737 C68.0944553,68.5873684 67.4391195,68.5873684 67.002229,68.1494737 Z" id="Shape" fill="#E2E0C1" fill-rule="nonzero"></path>
                <ellipse id="Oval" fill="#E2E0C1" fill-rule="nonzero" cx="41.5533575" cy="61.2526316" rx="6.55335748" ry="6.56842105"></ellipse>
                <ellipse id="Oval" fill="#E2E0C1" fill-rule="nonzero" cx="67.7667874" cy="86.4315789" rx="6.55335748" ry="6.56842105"></ellipse>
                <rect id="Rectangle-path" fill="#E2E0C1" fill-rule="nonzero" x="40.3175676" y="73.2727273" width="2.31756757" height="5.45454544"></rect>
                <polygon id="Shape" fill="#E2E0C1" fill-rule="nonzero" points="41.4763514 70 38 74.3636364 44.9527027 74.3636364"></polygon>
                <polygon id="Rectangle-path" fill="#E2E0C1" fill-rule="nonzero" points="50 60.3333333 55.4176904 60.3333333 55.4176904 62.6666667 50 62.6666667"></polygon>
                <polygon id="Shape" fill="#E2E0C1" fill-rule="nonzero" points="58.6683047 61.5 54.3341523 58 54.3341523 65"></polygon>
                <rect id="Rectangle-path" fill="#E2E0C1" fill-rule="nonzero" x="66.3175676" y="70" width="2.31756757" height="5.45454544"></rect>
                <polygon id="Shape" fill="#E2E0C1" fill-rule="nonzero" points="67.4763514 78.7272727 70.9527027 74.3636364 64 74.3636364"></polygon>
            </g>
        </g>
    </g>
</svg>