<?xml version="1.0" encoding="UTF-8"?>
<svg width="96px" height="107px" viewBox="0 0 96 107" version="1.1" xmlns="http://www.w3.org/2000/svg" xmlns:xlink="http://www.w3.org/1999/xlink">
    <!-- Generator: Sketch 57.1 (83088) - https://sketch.com -->
    <title>ODS</title>
    <desc>Created with Sketch.</desc>
    <g id="Page-1" stroke="none" stroke-width="1" fill="none" fill-rule="evenodd">
        <g id="Artboard" transform="translate(-1366.000000, -564.000000)">
            <g id="ODS" transform="translate(1366.000000, 564.000000)">
                <polygon id="Shape-Copy-30" fill="#79A92E" fill-rule="nonzero" points="95.7694398 106.362769 14 106.362769 14 0 70.2164899 0 95.7694398 25.3244688"></polygon>
                <polygon id="Shape-Copy-29" fill="#99CD48" fill-rule="nonzero" points="92.2753025 28.0582454 68 28.0582454 68 4"></polygon>
                <rect id="Rectangle-5-Copy-22" fill="#658C28" x="0" y="16" width="55" height="28" rx="4"></rect>
                <path d="M21.6542969,30.8916016 C21.6542969,32.1513735 21.4316429,33.2558546 20.9863281,34.2050781 C20.5410134,35.1543016 19.9038127,35.8867162 19.074707,36.4023438 C18.2456013,36.9179713 17.2949272,37.1757812 16.2226562,37.1757812 C15.1621041,37.1757812 14.2158245,36.920901 13.3837891,36.4111328 C12.5517537,35.9013646 11.9072288,35.1733446 11.4501953,34.2270508 C10.9931618,33.280757 10.7617188,32.192389 10.7558594,30.9619141 L10.7558594,30.3291016 C10.7558594,29.0693296 10.9829079,27.960454 11.4370117,27.0024414 C11.8911156,26.0444288 12.5327107,25.3090846 13.3618164,24.7963867 C14.1909221,24.2836888 15.1386665,24.0273438 16.2050781,24.0273438 C17.2714897,24.0273438 18.2192341,24.2836888 19.0483398,24.7963867 C19.8774456,25.3090846 20.5190407,26.0444288 20.9731445,27.0024414 C21.4272484,27.960454 21.6542969,29.0664 21.6542969,30.3203125 L21.6542969,30.8916016 Z M18.9824219,30.3115234 C18.9824219,28.9697199 18.7421899,27.9501988 18.2617188,27.2529297 C17.7812476,26.5556606 17.0957076,26.2070312 16.2050781,26.2070312 C15.3203081,26.2070312 14.6376977,26.5512661 14.1572266,27.2397461 C13.6767554,27.9282261 13.4335938,28.9374933 13.4277344,30.2675781 L13.4277344,30.8916016 C13.4277344,32.1982487 13.6679663,33.2119105 14.1484375,33.9326172 C14.6289087,34.6533239 15.320308,35.0136719 16.2226562,35.0136719 C17.1074263,35.0136719 17.787107,34.6665074 18.2617188,33.972168 C18.7363305,33.2778286 18.9765625,32.2656317 18.9824219,30.9355469 L18.9824219,30.3115234 Z M23.1383125,37 L23.1383125,24.203125 L27.0758125,24.203125 C28.2008181,24.203125 29.2071557,24.4565404 30.0948555,24.9633789 C30.9825552,25.4702174 31.6754194,26.1909133 32.1734687,27.1254883 C32.6715181,28.0600633 32.9205391,29.1220644 32.9205391,30.3115234 L32.9205391,30.9003906 C32.9205391,32.0898497 32.6759126,33.1474563 32.1866523,34.0732422 C31.6973921,34.9990281 31.0074576,35.7167943 30.1168281,36.2265625 C29.2261987,36.7363307 28.2213259,36.9941406 27.1021797,37 L23.1383125,37 Z M25.7750312,26.3388672 L25.7750312,34.8818359 L27.0494453,34.8818359 C28.0807005,34.8818359 28.8687785,34.5449252 29.4137031,33.8710938 C29.9586277,33.1972623 30.2369452,32.2334047 30.2486641,30.9794922 L30.2486641,30.3027344 C30.2486641,29.0019466 29.9791355,28.0161166 29.4400703,27.3452148 C28.9010051,26.6743131 28.112927,26.3388672 27.0758125,26.3388672 L25.7750312,26.3388672 Z M41.0402969,33.6425781 C41.0402969,33.1445288 40.8645174,32.7622084 40.5129531,32.4956055 C40.1613888,32.2290026 39.5285827,31.9477554 38.6145156,31.6518555 C37.7004485,31.3559556 36.976823,31.0644546 36.4436172,30.7773438 C34.9904849,29.9921836 34.2639297,28.934577 34.2639297,27.6044922 C34.2639297,26.9130825 34.4587519,26.2963894 34.8484023,25.7543945 C35.2380527,25.2123996 35.7976174,24.789064 36.5271133,24.484375 C37.2566091,24.179686 38.0754486,24.0273438 38.9836562,24.0273438 C39.8977233,24.0273438 40.7121683,24.1928694 41.4270156,24.5239258 C42.1418629,24.8549821 42.6970332,25.3222626 43.0925429,25.9257812 C43.4880527,26.5292999 43.6858047,27.2148399 43.6858047,27.9824219 L41.0490859,27.9824219 C41.0490859,27.3964814 40.8645174,26.9409196 40.495375,26.6157227 C40.1262325,26.2905257 39.607683,26.1279297 38.9397109,26.1279297 C38.2951764,26.1279297 37.7942049,26.2641588 37.4367812,26.5366211 C37.0793576,26.8090834 36.9006484,27.1679665 36.9006484,27.6132812 C36.9006484,28.029299 37.110119,28.3779283 37.5290664,28.6591797 C37.9480138,28.9404311 38.5647068,29.2041003 39.379164,29.4501953 C40.8791715,29.9013694 41.971934,30.4609342 42.6574844,31.1289062 C43.3430347,31.7968783 43.6858047,32.6289013 43.6858047,33.625 C43.6858047,34.7324274 43.2668635,35.6010711 42.4289687,36.230957 C41.5910739,36.860843 40.4631555,37.1757812 39.0451797,37.1757812 C38.0607997,37.1757812 37.1643243,36.9956073 36.3557265,36.6352539 C35.5471287,36.2749005 34.9304357,35.7812531 34.5056289,35.1542969 C34.0808221,34.5273438 33.8684219,33.8007854 33.8684219,32.9746094 L36.5139297,32.9746094 C36.5139297,34.3867258 37.3576712,35.0927734 39.0451797,35.0927734 C39.6721359,35.0927734 40.1613888,34.9653333 40.5129531,34.7104492 C40.8645174,34.4555651 41.0402969,34.0996117 41.0402969,33.6425781 Z" fill="#99CD48"></path>
                <polygon id="-copy" fill="#99CD48" points="73.5625 57 59.375 57 59.375 64.125 62.875 64.125 55.8125 70.0625 48.6875 64.125 52.25 64.125 52.25 57 38 57 38 64.125 41.5625 64.125 52.25 73 41.5625 81.875 38 81.875 38 89 52.25 89 52.25 81.875 48.6875 81.875 55.8125 75.9375 62.875 81.875 59.375 81.875 59.375 89 73.5625 89 73.5625 81.875 70 81.875 59.375 73 70 64.125 73.5625 64.125"></polygon>
            </g>
        </g>
    </g>
</svg>