<?xml version="1.0" encoding="UTF-8"?>
<svg width="96px" height="107px" viewBox="0 0 96 107" version="1.1" xmlns="http://www.w3.org/2000/svg" xmlns:xlink="http://www.w3.org/1999/xlink">
    <!-- Generator: Sketch 57.1 (83088) - https://sketch.com -->
    <title>OGV</title>
    <desc>Created with Sketch.</desc>
    <g id="Page-1" stroke="none" stroke-width="1" fill="none" fill-rule="evenodd">
        <g id="Artboard" transform="translate(-1226.000000, -1428.000000)">
            <g id="OGV" transform="translate(1226.000000, 1428.000000)">
                <polygon id="Shape-Copy-268" fill="#A75FD9" fill-rule="nonzero" points="95.7694398 106.362769 14 106.362769 14 0 70.2164899 0 95.7694398 25.3244688"></polygon>
                <polygon id="Shape-Copy-267" fill="#DBA7FF" fill-rule="nonzero" points="92.2753025 28.0582454 68 28.0582454 68 4"></polygon>
                <rect id="Rectangle-5-Copy-222" fill="#8950B1" x="0" y="16" width="55" height="28" rx="4"></rect>
                <text font-family="Roboto-Bold, Roboto" font-size="17" font-weight="bold" letter-spacing="-0.408" fill="#CC98F1">
                    <tspan x="10" y="36">OGV</tspan>
                </text>
                <g id="Film" transform="translate(40.000000, 55.000000)" fill="#FFFFFF" fill-opacity="0.62279212">
                    <path d="M3.04991252,-0.000475806782 C3.27034231,1.08653106 4.19602187,1.91753918 5.32862059,1.99421795 L5.5,2 L7.5,2 C8.70964705,2 9.71863621,1.1408814 9.95008748,-0.000475806782 L20.0499125,-0.000475806782 C20.2703423,1.08653106 21.1960219,1.91753918 22.3286206,1.99421795 L22.5,2 L24.5,2 C25.7096471,2 26.7186362,1.1408814 26.9500875,-0.000475806782 L30,0 L30,34 L26.9501074,34.000574 C26.7297138,32.9135206 25.8040149,32.0824655 24.6713843,32.0057824 L24.5,32 L22.5,32 C21.2903182,32 20.2813059,32.8591679 20.0498926,34.000574 L9.9501074,34.000574 C9.72971378,32.9135206 8.80401491,32.0824655 7.67138429,32.0057824 L7.5,32 L5.5,32 C4.29031824,32 3.2813059,32.8591679 3.0498926,34.000574 L0,34 L0,0 L3.04991252,-0.000475806782 Z M7.5,23 L5.5,23 C4.1745166,23 3.08996133,24.0315359 3.00531768,25.3356243 L3,25.5 L3,26.5 C3,27.8254834 4.03153594,28.9100387 5.33562431,28.9946823 L5.5,29 L7.5,29 C8.8254834,29 9.91003867,27.9684641 9.99468232,26.6643757 L10,26.5 L10,25.5 C10,24.1192881 8.88071187,23 7.5,23 Z M24.5,23 L22.5,23 C21.1745166,23 20.0899613,24.0315359 20.0053177,25.3356243 L20,25.5 L20,26.5 C20,27.8254834 21.0315359,28.9100387 22.3356243,28.9946823 L22.5,29 L24.5,29 C25.8254834,29 26.9100387,27.9684641 26.9946823,26.6643757 L27,26.5 L27,25.5 C27,24.1192881 25.8807119,23 24.5,23 Z M7.5,14 L5.5,14 C4.1745166,14 3.08996133,15.0315359 3.00531768,16.3356243 L3,16.5 L3,17.5 C3,18.8254834 4.03153594,19.9100387 5.33562431,19.9946823 L5.5,20 L7.5,20 C8.8254834,20 9.91003867,18.9684641 9.99468232,17.6643757 L10,17.5 L10,16.5 C10,15.1192881 8.88071187,14 7.5,14 Z M24.5,14 L22.5,14 C21.1745166,14 20.0899613,15.0315359 20.0053177,16.3356243 L20,16.5 L20,17.5 C20,18.8254834 21.0315359,19.9100387 22.3356243,19.9946823 L22.5,20 L24.5,20 C25.8254834,20 26.9100387,18.9684641 26.9946823,17.6643757 L27,17.5 L27,16.5 C27,15.1192881 25.8807119,14 24.5,14 Z M7.5,5 L5.5,5 C4.1745166,5 3.08996133,6.03153594 3.00531768,7.33562431 L3,7.5 L3,8.5 C3,9.8254834 4.03153594,10.9100387 5.33562431,10.9946823 L5.5,11 L7.5,11 C8.8254834,11 9.91003867,9.96846406 9.99468232,8.66437569 L10,8.5 L10,7.5 C10,6.11928813 8.88071187,5 7.5,5 Z M24.5,5 L22.5,5 C21.1192881,5 20,6.11928813 20,7.5 L20,7.5 L20,8.5 C20,9.88071187 21.1192881,11 22.5,11 L22.5,11 L24.5,11 C25.8807119,11 27,9.88071187 27,8.5 L27,8.5 L27,7.5 C27,6.11928813 25.8807119,5 24.5,5 L24.5,5 Z" id="Combined-Shape"></path>
                </g>
            </g>
        </g>
    </g>
</svg>