<?xml version="1.0" encoding="UTF-8"?>
<svg width="96px" height="107px" viewBox="0 0 96 107" version="1.1" xmlns="http://www.w3.org/2000/svg" xmlns:xlink="http://www.w3.org/1999/xlink">
    <!-- Generator: Sketch 57.1 (83088) - https://sketch.com -->
    <title>PHP</title>
    <desc>Created with Sketch.</desc>
    <g id="Page-1" stroke="none" stroke-width="1" fill="none" fill-rule="evenodd">
        <g id="Artboard" transform="translate(-2107.000000, -564.000000)">
            <g id="PHP" transform="translate(2107.000000, 564.000000)">
                <polygon id="Shape-Copy-128" fill="#11907C" fill-rule="nonzero" points="95.7694398 106.362769 14 106.362769 14 0 70.2164899 0 95.7694398 25.3244688"></polygon>
                <polygon id="Shape-Copy-127" fill="#37D2BA" fill-rule="nonzero" points="92.2753025 28.0582454 68 28.0582454 68 4"></polygon>
                <rect id="Rectangle-5-Copy-102" fill="#0D6254" x="0" y="16" width="55" height="28" rx="4"></rect>
                <path d="M13.5693359,31.7416992 L13.5693359,36 L11.0791016,36 L11.0791016,23.9140625 L15.7939453,23.9140625 C16.7015019,23.9140625 17.4997524,24.0800765 18.1887207,24.4121094 C18.877689,24.7441423 19.4075502,25.2158986 19.7783203,25.8273926 C20.1490904,26.4388865 20.3344727,27.1347617 20.3344727,27.9150391 C20.3344727,29.0992898 19.9291219,30.0331183 19.1184082,30.7165527 C18.3076945,31.3999871 17.1857168,31.7416992 15.7524414,31.7416992 L13.5693359,31.7416992 Z M13.5693359,29.7246094 L15.7939453,29.7246094 C16.4524773,29.7246094 16.9546695,29.569663 17.3005371,29.2597656 C17.6464047,28.9498682 17.8193359,28.5071643 17.8193359,27.9316406 C17.8193359,27.3395153 17.6450213,26.8608417 17.2963867,26.4956055 C16.9477522,26.1303693 16.4663117,25.9422201 15.8520508,25.9311523 L13.5693359,25.9311523 L13.5693359,29.7246094 Z M31.4488594,36 L28.958625,36 L28.958625,30.8203125 L24.102668,30.8203125 L24.102668,36 L21.6124336,36 L21.6124336,23.9140625 L24.102668,23.9140625 L24.102668,28.8115234 L28.958625,28.8115234 L28.958625,23.9140625 L31.4488594,23.9140625 L31.4488594,36 Z M35.6818984,31.7416992 L35.6818984,36 L33.191664,36 L33.191664,23.9140625 L37.9065078,23.9140625 C38.8140644,23.9140625 39.6123149,24.0800765 40.3012832,24.4121094 C40.9902515,24.7441423 41.5201127,25.2158986 41.8908828,25.8273926 C42.2616529,26.4388865 42.4470351,27.1347617 42.4470351,27.9150391 C42.4470351,29.0992898 42.0416844,30.0331183 41.2309707,30.7165527 C40.420257,31.3999871 39.2982793,31.7416992 37.8650039,31.7416992 L35.6818984,31.7416992 Z M35.6818984,29.7246094 L37.9065078,29.7246094 C38.5650397,29.7246094 39.067232,29.569663 39.4130996,29.2597656 C39.7589672,28.9498682 39.9318984,28.5071643 39.9318984,27.9316406 C39.9318984,27.3395153 39.7575838,26.8608417 39.4089492,26.4956055 C39.0603146,26.1303693 38.5788741,25.9422201 37.9646133,25.9311523 L35.6818984,25.9311523 L35.6818984,29.7246094 Z" fill="#37D2BA"></path>
                <path d="M33,71.9765625 L47.9765625,86.953125 L53.671875,81.2578125 L44.3203125,71.9765625 L53.671875,62.625 L47.9765625,57 L33,71.9765625 Z M77.6484375,71.9765625 L62.671875,57 L56.9765625,62.625 L66.328125,71.9765625 L56.9765625,81.2578125 L62.671875,86.953125 L77.6484375,71.9765625 Z" id="-copy" fill="#37D2BA"></path>
            </g>
        </g>
    </g>
</svg>