<?xml version="1.0" encoding="UTF-8"?>
<svg width="96px" height="107px" viewBox="0 0 96 107" version="1.1" xmlns="http://www.w3.org/2000/svg" xmlns:xlink="http://www.w3.org/1999/xlink">
    <!-- Generator: Sketch 57.1 (83088) - https://sketch.com -->
    <title>Premiere</title>
    <desc>Created with Sketch.</desc>
    <g id="Page-1" stroke="none" stroke-width="1" fill="none" fill-rule="evenodd">
        <g id="Artboard" transform="translate(-1366.000000, -128.000000)">
            <g id="Premiere" transform="translate(1366.000000, 128.000000)">
                <polygon id="Shape-Copy-118" fill="#51295A" fill-rule="nonzero" points="95.7694398 106.362769 14 106.362769 14 0 70.2164899 0 95.7694398 25.3244688"></polygon>
                <polygon id="Shape-Copy-117" fill="#EB7AFF" fill-rule="nonzero" points="92.2753025 28.0582454 68 28.0582454 68 4"></polygon>
                <rect id="Rectangle-5-Copy-94" fill="#2C0050" x="0" y="16" width="55" height="28" rx="4"></rect>
                <path d="M8.56933594,31.7416992 L8.56933594,36 L6.07910156,36 L6.07910156,23.9140625 L10.7939453,23.9140625 C11.7015019,23.9140625 12.4997524,24.0800765 13.1887207,24.4121094 C13.877689,24.7441423 14.4075502,25.2158986 14.7783203,25.8273926 C15.1490904,26.4388865 15.3344727,27.1347617 15.3344727,27.9150391 C15.3344727,29.0992898 14.9291219,30.0331183 14.1184082,30.7165527 C13.3076945,31.3999871 12.1857168,31.7416992 10.7524414,31.7416992 L8.56933594,31.7416992 Z M8.56933594,29.7246094 L10.7939453,29.7246094 C11.4524773,29.7246094 11.9546695,29.569663 12.3005371,29.2597656 C12.6464047,28.9498682 12.8193359,28.5071643 12.8193359,27.9316406 C12.8193359,27.3395153 12.6450213,26.8608417 12.2963867,26.4956055 C11.9477522,26.1303693 11.4663117,25.9422201 10.8520508,25.9311523 L8.56933594,25.9311523 L8.56933594,29.7246094 Z M21.1105547,31.5756836 L19.1266679,31.5756836 L19.1266679,36 L16.6364336,36 L16.6364336,23.9140625 L21.1271562,23.9140625 C22.5548977,23.9140625 23.6561237,24.2322559 24.4308672,24.8686523 C25.2056106,25.5050488 25.5929765,26.4042911 25.5929765,27.5664062 C25.5929765,28.3909546 25.4145115,29.0785291 25.0575761,29.6291504 C24.7006408,30.1797716 24.1597119,30.6183252 23.4347734,30.9448242 L26.0495195,35.8837891 L26.0495195,36 L23.3766679,36 L21.1105547,31.5756836 Z M19.1266679,29.5585938 L21.135457,29.5585938 C21.7607857,29.5585938 22.2449931,29.399497 22.5880937,29.0812988 C22.9311944,28.7631006 23.1027422,28.3245471 23.1027422,27.765625 C23.1027422,27.1956352 22.9408785,26.7473975 22.6171465,26.4208984 C22.2934144,26.0943994 21.7967559,25.9311523 21.1271562,25.9311523 L19.1266679,25.9311523 L19.1266679,29.5585938 Z M34.349039,30.762207 L29.567789,30.762207 L29.567789,33.9995117 L35.1791171,33.9995117 L35.1791171,36 L27.0775546,36 L27.0775546,23.9140625 L35.1625156,23.9140625 L35.1625156,25.9311523 L29.567789,25.9311523 L29.567789,28.8115234 L34.349039,28.8115234 L34.349039,30.762207 Z M39.4859609,23.9140625 L42.5904531,32.6796875 L45.6783437,23.9140625 L48.9488515,23.9140625 L48.9488515,36 L46.4503163,36 L46.4503163,32.6962891 L46.6993398,26.9936523 L43.4371327,36 L41.7271718,36 L38.4732656,27.0019531 L38.722289,32.6962891 L38.722289,36 L36.2320546,36 L36.2320546,23.9140625 L39.4859609,23.9140625 Z" id="PREM" fill="#E171FB"></path>
                <path d="M66.984375,69 L66.984375,62.0039062 C66.984375,61.4648411 66.7910176,60.9960957 66.4042969,60.5976562 C66.0175762,60.1992168 65.5429716,60 64.9804688,60 L41.0039062,60 C40.4414034,60 39.9667988,60.1992168 39.5800781,60.5976562 C39.1933574,60.9960957 39,61.4648411 39,62.0039062 L39,82.0078125 C39,82.5703153 39.1933574,83.0449199 39.5800781,83.4316406 C39.9667988,83.8183613 40.4414034,84.0117188 41.0039062,84.0117188 L64.9804688,84.0117188 C65.5429716,84.0117188 66.0175762,83.8183613 66.4042969,83.4316406 C66.7910176,83.0449199 66.984375,82.5703153 66.984375,82.0078125 L66.984375,75.0117188 L75,83.0273438 L75,61.0195312 L66.984375,69 Z" id="" fill="#E171FB"></path>
            </g>
        </g>
    </g>
</svg>