<?xml version="1.0" encoding="UTF-8"?>
<svg width="96px" height="107px" viewBox="0 0 96 107" version="1.1" xmlns="http://www.w3.org/2000/svg" xmlns:xlink="http://www.w3.org/1999/xlink">
    <!-- Generator: Sketch 57.1 (83088) - https://sketch.com -->
    <title>Photoshop</title>
    <desc>Created with Sketch.</desc>
    <g id="Page-1" stroke="none" stroke-width="1" fill="none" fill-rule="evenodd">
        <g id="Artboard" transform="translate(-947.000000, -128.000000)">
            <g id="Photoshop" transform="translate(947.000000, 128.000000)">
                <polygon id="Shape-Copy-3" fill="#003C4A" fill-rule="nonzero" points="95.7694398 106.362769 14 106.362769 14 0 70.2164899 0 95.7694398 25.3244688"></polygon>
                <polygon id="Shape-Copy-2" fill="#00CBFF" fill-rule="nonzero" points="92.2753025 28.0582454 68 28.0582454 68 4"></polygon>
                <rect id="Rectangle-5-Copy-6" fill="#002C36" x="0" y="16" width="55" height="28" rx="4"></rect>
                <path d="M19.7792969,32.4912109 L19.7792969,37 L17.1425781,37 L17.1425781,24.203125 L22.1347656,24.203125 C23.0957079,24.203125 23.9409143,24.3789045 24.6704102,24.7304688 C25.399906,25.082033 25.9609355,25.5815397 26.3535156,26.2290039 C26.7460957,26.8764681 26.9423828,27.6132771 26.9423828,28.4394531 C26.9423828,29.6933656 26.5131879,30.6821253 25.6547852,31.4057617 C24.7963824,32.1293981 23.608406,32.4912109 22.0908203,32.4912109 L19.7792969,32.4912109 Z M19.7792969,30.3554688 L22.1347656,30.3554688 C22.8320347,30.3554688 23.3637677,30.1914079 23.7299805,29.8632812 C24.0961932,29.5351546 24.2792969,29.0664093 24.2792969,28.4570312 C24.2792969,27.830075 24.0947284,27.3232441 23.7255859,26.9365234 C23.3564435,26.5498028 22.8466829,26.350586 22.1962891,26.3388672 L19.7792969,26.3388672 L19.7792969,30.3554688 Z M34.9566719,33.6425781 C34.9566719,33.1445288 34.7808924,32.7622084 34.4293281,32.4956055 C34.0777639,32.2290026 33.4449577,31.9477554 32.5308906,31.6518555 C31.6168235,31.3559556 30.893198,31.0644546 30.3599922,30.7773438 C28.9068599,29.9921836 28.1803047,28.934577 28.1803047,27.6044922 C28.1803047,26.9130825 28.3751269,26.2963894 28.7647773,25.7543945 C29.1544277,25.2123996 29.7139924,24.789064 30.4434883,24.484375 C31.1729841,24.179686 31.9918236,24.0273438 32.9000312,24.0273438 C33.8140983,24.0273438 34.6285433,24.1928694 35.3433906,24.5239258 C36.0582379,24.8549821 36.6134082,25.3222626 37.008918,25.9257812 C37.4044277,26.5292999 37.6021797,27.2148399 37.6021797,27.9824219 L34.9654609,27.9824219 C34.9654609,27.3964814 34.7808925,26.9409196 34.41175,26.6157227 C34.0426075,26.2905257 33.524058,26.1279297 32.8560859,26.1279297 C32.2115515,26.1279297 31.7105799,26.2641588 31.3531562,26.5366211 C30.9957326,26.8090834 30.8170234,27.1679665 30.8170234,27.6132812 C30.8170234,28.029299 31.026494,28.3779283 31.4454414,28.6591797 C31.8643888,28.9404311 32.4810819,29.2041003 33.2955391,29.4501953 C34.7955466,29.9013694 35.8883091,30.4609342 36.5738594,31.1289062 C37.2594097,31.7968783 37.6021797,32.6289013 37.6021797,33.625 C37.6021797,34.7324274 37.1832386,35.6010711 36.3453437,36.230957 C35.5074489,36.860843 34.3795305,37.1757812 32.9615547,37.1757812 C31.9771748,37.1757812 31.0806993,36.9956073 30.2721016,36.6352539 C29.4635038,36.2749005 28.8468107,35.7812531 28.4220039,35.1542969 C27.9971971,34.5273438 27.7847969,33.8007854 27.7847969,32.9746094 L30.4303047,32.9746094 C30.4303047,34.3867258 31.2740462,35.0927734 32.9615547,35.0927734 C33.5885109,35.0927734 34.0777639,34.9653333 34.4293281,34.7104492 C34.7808924,34.4555651 34.9566719,34.0996117 34.9566719,33.6425781 Z" id="PS" fill="#00CBFF"></path>
                <path d="M66.984375,56.0078125 L66.984375,54.0039062 C66.984375,53.4414034 66.7910176,52.9667988 66.4042969,52.5800781 C66.0175762,52.1933574 65.5429716,52 64.9804688,52 L40.96875,52 C40.4296848,52 39.9667988,52.1933574 39.5800781,52.5800781 C39.1933574,52.9667988 39,53.4414034 39,54.0039062 L39,61.984375 C39,62.5468778 39.1933574,63.0214824 39.5800781,63.4082031 C39.9667988,63.7949238 40.4296848,63.9882812 40.96875,63.9882812 L64.9804688,63.9882812 C65.5429716,63.9882812 66.0175762,63.7949238 66.4042969,63.4082031 C66.7910176,63.0214824 66.984375,62.5468778 66.984375,61.984375 L66.984375,59.9804688 L68.9882812,59.9804688 L68.9882812,67.9960938 L48.984375,67.9960938 L48.984375,90.0039062 C48.984375,90.5429714 49.1777324,91.0117168 49.5644531,91.4101562 C49.9511738,91.8085957 50.4257784,92.0078125 50.9882812,92.0078125 L54.9960938,92.0078125 C55.5351589,92.0078125 56.0039043,91.8085957 56.4023438,91.4101562 C56.8007832,91.0117168 57,90.5429714 57,90.0039062 L57,72.0039062 L72.9960938,72.0039062 L72.9960938,56.0078125 L66.984375,56.0078125 Z" id="" fill="#00CBFF"></path>
            </g>
        </g>
    </g>
</svg>