<?xml version="1.0" encoding="UTF-8"?>
<svg width="96px" height="107px" viewBox="0 0 96 107" version="1.1" xmlns="http://www.w3.org/2000/svg" xmlns:xlink="http://www.w3.org/1999/xlink">
    <!-- Generator: Sketch 57.1 (83088) - https://sketch.com -->
    <title>PSD File</title>
    <desc>Created with Sketch.</desc>
    <g id="Page-1" stroke="none" stroke-width="1" fill="none" fill-rule="evenodd">
        <g id="Artboard" transform="translate(-947.000000, -274.000000)">
            <g id="PSD-File" transform="translate(947.000000, 274.000000)">
                <polygon id="Shape-Copy-319" fill="#003C4A" fill-rule="nonzero" points="95.7694398 106.362769 14 106.362769 14 0 70.2164899 0 95.7694398 25.3244688"></polygon>
                <polygon id="Shape-Copy-8" fill="#00CBFF" fill-rule="nonzero" points="92.2753025 28.0582454 68 28.0582454 68 4"></polygon>
                <rect id="Rectangle-5-Copy-262" fill="#002C36" x="0" y="16" width="55" height="28" rx="4"></rect>
                <path d="M15.7792969,32.4912109 L15.7792969,37 L13.1425781,37 L13.1425781,24.203125 L18.1347656,24.203125 C19.0957079,24.203125 19.9409143,24.3789045 20.6704102,24.7304688 C21.399906,25.082033 21.9609355,25.5815397 22.3535156,26.2290039 C22.7460957,26.8764681 22.9423828,27.6132771 22.9423828,28.4394531 C22.9423828,29.6933656 22.5131879,30.6821253 21.6547852,31.4057617 C20.7963824,32.1293981 19.608406,32.4912109 18.0908203,32.4912109 L15.7792969,32.4912109 Z M15.7792969,30.3554688 L18.1347656,30.3554688 C18.8320347,30.3554688 19.3637677,30.1914079 19.7299805,29.8632812 C20.0961932,29.5351546 20.2792969,29.0664093 20.2792969,28.4570312 C20.2792969,27.830075 20.0947284,27.3232441 19.7255859,26.9365234 C19.3564435,26.5498028 18.8466829,26.350586 18.1962891,26.3388672 L15.7792969,26.3388672 L15.7792969,30.3554688 Z M30.9566719,33.6425781 C30.9566719,33.1445288 30.7808924,32.7622084 30.4293281,32.4956055 C30.0777639,32.2290026 29.4449577,31.9477554 28.5308906,31.6518555 C27.6168235,31.3559556 26.893198,31.0644546 26.3599922,30.7773438 C24.9068599,29.9921836 24.1803047,28.934577 24.1803047,27.6044922 C24.1803047,26.9130825 24.3751269,26.2963894 24.7647773,25.7543945 C25.1544277,25.2123996 25.7139924,24.789064 26.4434883,24.484375 C27.1729841,24.179686 27.9918236,24.0273438 28.9000312,24.0273438 C29.8140983,24.0273438 30.6285433,24.1928694 31.3433906,24.5239258 C32.0582379,24.8549821 32.6134082,25.3222626 33.008918,25.9257812 C33.4044277,26.5292999 33.6021797,27.2148399 33.6021797,27.9824219 L30.9654609,27.9824219 C30.9654609,27.3964814 30.7808925,26.9409196 30.41175,26.6157227 C30.0426075,26.2905257 29.524058,26.1279297 28.8560859,26.1279297 C28.2115515,26.1279297 27.7105799,26.2641588 27.3531562,26.5366211 C26.9957326,26.8090834 26.8170234,27.1679665 26.8170234,27.6132812 C26.8170234,28.029299 27.026494,28.3779283 27.4454414,28.6591797 C27.8643888,28.9404311 28.4810819,29.2041003 29.2955391,29.4501953 C30.7955466,29.9013694 31.8883091,30.4609342 32.5738594,31.1289062 C33.2594097,31.7968783 33.6021797,32.6289013 33.6021797,33.625 C33.6021797,34.7324274 33.1832386,35.6010711 32.3453437,36.230957 C31.5074489,36.860843 30.3795305,37.1757812 28.9615547,37.1757812 C27.9771748,37.1757812 27.0806993,36.9956073 26.2721016,36.6352539 C25.4635038,36.2749005 24.8468107,35.7812531 24.4220039,35.1542969 C23.9971971,34.5273438 23.7847969,33.8007854 23.7847969,32.9746094 L26.4303047,32.9746094 C26.4303047,34.3867258 27.2740462,35.0927734 28.9615547,35.0927734 C29.5885109,35.0927734 30.0777639,34.9653333 30.4293281,34.7104492 C30.7808924,34.4555651 30.9566719,34.0996117 30.9566719,33.6425781 Z M34.9543594,37 L34.9543594,24.203125 L38.8918594,24.203125 C40.016865,24.203125 41.0232026,24.4565404 41.9109023,24.9633789 C42.7986021,25.4702174 43.4914662,26.1909133 43.9895156,27.1254883 C44.487565,28.0600633 44.7365859,29.1220644 44.7365859,30.3115234 L44.7365859,30.9003906 C44.7365859,32.0898497 44.4919595,33.1474563 44.0026992,34.0732422 C43.5134389,34.9990281 42.8235044,35.7167943 41.932875,36.2265625 C41.0422455,36.7363307 40.0373728,36.9941406 38.9182265,37 L34.9543594,37 Z M37.5910781,26.3388672 L37.5910781,34.8818359 L38.8654922,34.8818359 C39.8967473,34.8818359 40.6848254,34.5449252 41.22975,33.8710938 C41.7746746,33.1972623 42.0529921,32.2334047 42.0647109,30.9794922 L42.0647109,30.3027344 C42.0647109,29.0019466 41.7951824,28.0161166 41.2561172,27.3452148 C40.717052,26.6743131 39.9289739,26.3388672 38.8918594,26.3388672 L37.5910781,26.3388672 Z" id="PSD" fill="#00CBFF"></path>
                <path d="M66.984375,56.0078125 L66.984375,54.0039062 C66.984375,53.4414034 66.7910176,52.9667988 66.4042969,52.5800781 C66.0175762,52.1933574 65.5429716,52 64.9804688,52 L40.96875,52 C40.4296848,52 39.9667988,52.1933574 39.5800781,52.5800781 C39.1933574,52.9667988 39,53.4414034 39,54.0039062 L39,61.984375 C39,62.5468778 39.1933574,63.0214824 39.5800781,63.4082031 C39.9667988,63.7949238 40.4296848,63.9882812 40.96875,63.9882812 L64.9804688,63.9882812 C65.5429716,63.9882812 66.0175762,63.7949238 66.4042969,63.4082031 C66.7910176,63.0214824 66.984375,62.5468778 66.984375,61.984375 L66.984375,59.9804688 L68.9882812,59.9804688 L68.9882812,67.9960938 L48.984375,67.9960938 L48.984375,90.0039062 C48.984375,90.5429714 49.1777324,91.0117168 49.5644531,91.4101562 C49.9511738,91.8085957 50.4257784,92.0078125 50.9882812,92.0078125 L54.9960938,92.0078125 C55.5351589,92.0078125 56.0039043,91.8085957 56.4023438,91.4101562 C56.8007832,91.0117168 57,90.5429714 57,90.0039062 L57,72.0039062 L72.9960938,72.0039062 L72.9960938,56.0078125 L66.984375,56.0078125 Z" id="-copy" fill="#00CBFF"></path>
            </g>
        </g>
    </g>
</svg>