<?xml version="1.0" encoding="UTF-8"?>
<svg width="98px" height="111px" viewBox="0 0 98 111" version="1.1" xmlns="http://www.w3.org/2000/svg" xmlns:xlink="http://www.w3.org/1999/xlink">
    <!-- Generator: Sketch 57.1 (83088) - https://sketch.com -->
    <title>RAR File</title>
    <desc>Created with Sketch.</desc>
    <defs>
        <polygon id="path-1" points="95.7694398 106.362769 14 106.362769 14 0 70.2164899 0 95.7694398 25.3244688"></polygon>
        <filter x="-3.7%" y="-2.8%" width="107.3%" height="105.6%" filterUnits="objectBoundingBox" id="filter-2">
            <feOffset dx="0" dy="0" in="SourceAlpha" result="shadowOffsetOuter1"></feOffset>
            <feGaussianBlur stdDeviation="1" in="shadowOffsetOuter1" result="shadowBlurOuter1"></feGaussianBlur>
            <feColorMatrix values="0 0 0 0 0   0 0 0 0 0   0 0 0 0 0  0 0 0 0.5 0" type="matrix" in="shadowBlurOuter1"></feColorMatrix>
        </filter>
    </defs>
    <g id="Page-1" stroke="none" stroke-width="1" fill="none" fill-rule="evenodd">
        <g id="My-Desings" transform="translate(-1024.000000, -126.000000)">
            <g id="RAR-File" transform="translate(1024.000000, 128.000000)">
                <g id="Shape-Copy-397" fill-rule="nonzero">
                    <use fill="black" fill-opacity="1" filter="url(#filter-2)" xlink:href="#path-1"></use>
                    <use fill="#FFFFFF" xlink:href="#path-1"></use>
                </g>
                <polygon id="Shape-Copy-396" fill="#585858" fill-rule="nonzero" points="92.2753025 28.0582454 68 28.0582454 68 4"></polygon>
                <rect id="Rectangle-5-Copy-325" fill="#585858" x="0" y="16" width="55" height="28" rx="4"></rect>
                <polygon id="Shape" fill="#585858" fill-rule="nonzero" points="52 71 59 71 59 74 52 74"></polygon>
                <polygon id="Shape" fill="#585858" fill-rule="nonzero" points="52 59 59 59 59 62 52 62"></polygon>
                <polygon id="Shape" fill="#585858" fill-rule="nonzero" points="52 49 59 49 59 52 52 52"></polygon>
                <path d="M58.5,80 L51.5,80 C51.5,84.75 48,89.5 48,92.6666667 C48,96.1673185 51.1308602,99 55,99 C58.8691415,99 62,96.1673185 62,92.6666667 C62,89.5 58.5,84.75 58.5,80 Z M54.5,95.3333333 C52.5654292,95.3333333 51,93.9169926 51,92.1666667 C51,90.4163408 52.5654292,89 54.5,89 C56.4345707,89 58,90.4163408 58,92.1666667 C58,93.9169926 56.4345707,95.3333333 54.5,95.3333333 Z" id="Shape" fill="#585858" fill-rule="nonzero"></path>
                <text id="RAR" font-family="Roboto-Bold, Roboto" font-size="18" font-weight="bold" letter-spacing="-0.432" fill="#FFFFFF">
                    <tspan x="10.6050313" y="37">RAR</tspan>
                </text>
            </g>
        </g>
    </g>
</svg>