<?xml version="1.0" encoding="UTF-8"?>
<svg width="96px" height="107px" viewBox="0 0 96 107" version="1.1" xmlns="http://www.w3.org/2000/svg" xmlns:xlink="http://www.w3.org/1999/xlink">
    <!-- Generator: Sketch 57.1 (83088) - https://sketch.com -->
    <title>Axure RP</title>
    <desc>Created with Sketch.</desc>
    <g id="Page-1" stroke="none" stroke-width="1" fill="none" fill-rule="evenodd">
        <g id="Artboard" transform="translate(-1510.000000, -276.000000)">
            <g id="Axure-RP" transform="translate(1510.000000, 276.000000)">
                <polygon id="Shape-Copy-213" fill="#4D1772" fill-rule="nonzero" points="95.7694398 106.362769 14 106.362769 14 0 70.2164899 0 95.7694398 25.3244688"></polygon>
                <polygon id="Shape-Copy-212" fill="#D512FA" fill-rule="nonzero" points="92.2753025 28.0582454 68 28.0582454 68 4"></polygon>
                <rect id="Rectangle-5-Copy-176" fill="#000000" x="0" y="16" width="55" height="28" rx="4"></rect>
                <path d="M21.8798828,32.3154297 L19.7792969,32.3154297 L19.7792969,37 L17.1425781,37 L17.1425781,24.203125 L21.8974609,24.203125 C23.4091872,24.203125 24.5751912,24.5400357 25.3955078,25.2138672 C26.2158244,25.8876987 26.6259766,26.8398376 26.6259766,28.0703125 C26.6259766,28.9433637 26.4370136,29.6713838 26.059082,30.2543945 C25.6811505,30.8374053 25.1084023,31.3017561 24.3408203,31.6474609 L27.109375,36.8769531 L27.109375,37 L24.2792969,37 L21.8798828,32.3154297 Z M19.7792969,30.1796875 L21.90625,30.1796875 C22.5683627,30.1796875 23.0810529,30.0112322 23.4443359,29.6743164 C23.807619,29.3374007 23.9892578,28.8730498 23.9892578,28.28125 C23.9892578,27.6777314 23.8178728,27.2031267 23.4750977,26.8574219 C23.1323225,26.511717 22.6064489,26.3388672 21.8974609,26.3388672 L19.7792969,26.3388672 L19.7792969,30.1796875 Z M30.8346016,32.4912109 L30.8346016,37 L28.1978828,37 L28.1978828,24.203125 L33.1900703,24.203125 C34.1510126,24.203125 34.996219,24.3789045 35.7257148,24.7304688 C36.4552107,25.082033 37.0162402,25.5815397 37.4088203,26.2290039 C37.8014004,26.8764681 37.9976875,27.6132771 37.9976875,28.4394531 C37.9976875,29.6933656 37.5684926,30.6821253 36.7100898,31.4057617 C35.8516871,32.1293981 34.6637107,32.4912109 33.146125,32.4912109 L30.8346016,32.4912109 Z M30.8346016,30.3554688 L33.1900703,30.3554688 C33.8873394,30.3554688 34.4190724,30.1914079 34.7852851,29.8632812 C35.1514979,29.5351546 35.3346016,29.0664093 35.3346016,28.4570312 C35.3346016,27.830075 35.1500331,27.3232441 34.7808906,26.9365234 C34.4117481,26.5498028 33.9019876,26.350586 33.2515937,26.3388672 L30.8346016,26.3388672 L30.8346016,30.3554688 Z" id="RP" fill="#D512FA"></path>
                <path d="M36,53 L36,61 L72,61 L72,53 L36,53 Z M36,65 L36,89 L60,89 L60,65 L36,65 Z M64,65 L64,89 L72,89 L72,65 L64,65 Z" id="Shape" fill="#D512FA" fill-rule="nonzero"></path>
            </g>
        </g>
    </g>
</svg>