<?xml version="1.0" encoding="UTF-8"?>
<svg width="96px" height="107px" viewBox="0 0 96 107" version="1.1" xmlns="http://www.w3.org/2000/svg" xmlns:xlink="http://www.w3.org/1999/xlink">
    <!-- Generator: Sketch 57.1 (83088) - https://sketch.com -->
    <title>SQL File</title>
    <desc>Created with Sketch.</desc>
    <g id="Page-1" stroke="none" stroke-width="1" fill="none" fill-rule="evenodd">
        <g id="Artboard" transform="translate(-1806.000000, -274.000000)">
            <g id="SQL-File" transform="translate(1806.000000, 274.000000)">
                <polygon id="Shape-Copy-243" fill="#A63A3D" fill-rule="nonzero" points="95.7694398 106.362769 14 106.362769 14 0 70.2164899 0 95.7694398 25.3244688"></polygon>
                <polygon id="Shape-Copy-242" fill="#EB6D71" fill-rule="nonzero" points="92.2753025 28.0582454 68 28.0582454 68 4"></polygon>
                <rect id="Rectangle-5-Copy-202" fill="#5C1C1E" x="0" y="16" width="55" height="28" rx="4"></rect>
                <path d="M19.3461914,32.8291016 C19.3461914,32.3587216 19.1801774,31.9976412 18.8481445,31.7458496 C18.5161116,31.494058 17.9184613,31.2284356 17.0551758,30.9489746 C16.1918902,30.6695136 15.5084661,30.3942071 15.0048828,30.1230469 C13.6324801,29.3815067 12.9462891,28.382656 12.9462891,27.1264648 C12.9462891,26.4734668 13.1302879,25.8910345 13.498291,25.3791504 C13.8662942,24.8672663 14.3947719,24.4674494 15.0837402,24.1796875 C15.7727085,23.8919256 16.5460569,23.7480469 17.4038086,23.7480469 C18.2670942,23.7480469 19.0362922,23.9043767 19.7114258,24.217041 C20.3865594,24.5297053 20.9108868,24.9710258 21.2844238,25.5410156 C21.6579609,26.1110055 21.8447266,26.7584599 21.8447266,27.4833984 L19.3544922,27.4833984 C19.3544922,26.9300103 19.1801775,26.4997574 18.831543,26.192627 C18.4829084,25.8854965 17.9931672,25.7319336 17.3623047,25.7319336 C16.7535777,25.7319336 16.2804379,25.8605944 15.9428711,26.1179199 C15.6053043,26.3752454 15.4365234,26.7141906 15.4365234,27.1347656 C15.4365234,27.5276712 15.6343567,27.8569323 16.0300293,28.1225586 C16.4257018,28.3881849 17.0081342,28.6372059 17.7773438,28.8696289 C19.1940175,29.2957378 20.226071,29.8242156 20.8735352,30.4550781 C21.5209993,31.0859407 21.8447266,31.8717401 21.8447266,32.8125 C21.8447266,33.8584037 21.4490599,34.6787893 20.6577148,35.2736816 C19.8663697,35.8685739 18.8011135,36.1660156 17.4619141,36.1660156 C16.5322219,36.1660156 15.6855507,35.9958513 14.921875,35.6555176 C14.1581993,35.3151838 13.575767,34.8489613 13.1745605,34.2568359 C12.7733541,33.6647106 12.5727539,32.9785195 12.5727539,32.1982422 L15.0712891,32.1982422 C15.0712891,33.5319077 15.8681561,34.1987305 17.4619141,34.1987305 C18.0540394,34.1987305 18.5161116,34.0783703 18.8481445,33.8376465 C19.1801774,33.5969226 19.3461914,33.2607443 19.3461914,32.8291016 Z M33.008918,30.230957 C33.008918,31.3598689 32.8263026,32.3407348 32.4610664,33.173584 C32.0958302,34.0064332 31.5894876,34.6746394 30.9420234,35.1782227 L32.9508125,36.7553711 L31.3653633,38.1582031 L28.7921211,36.0913086 C28.4988253,36.1411135 28.1944664,36.1660156 27.8790351,36.1660156 C26.8774025,36.1660156 25.983694,35.9252954 25.1978828,35.4438477 C24.4120716,34.9623999 23.8033537,34.2748254 23.3717109,33.3811035 C22.9400681,32.4873816 22.7214831,31.4594785 22.7159492,30.2973633 L22.7159492,29.699707 C22.7159492,28.5099224 22.9303839,27.462651 23.3592598,26.5578613 C23.7881356,25.6530716 24.3940866,24.9585799 25.1771308,24.4743652 C25.9601751,23.9901506 26.8552671,23.7480469 27.8624336,23.7480469 C28.8696001,23.7480469 29.764692,23.9901506 30.5477363,24.4743652 C31.3307806,24.9585799 31.9367316,25.6530716 32.3656074,26.5578613 C32.7944833,27.462651 33.008918,28.5071555 33.008918,29.6914062 L33.008918,30.230957 Z M30.4854805,29.6831055 C30.4854805,28.4158465 30.2585947,27.4529655 29.8048164,26.7944336 C29.3510381,26.1359017 28.7035836,25.8066406 27.8624336,25.8066406 C27.0268174,25.8066406 26.3821299,26.1317513 25.9283516,26.7819824 C25.4745732,27.4322135 25.2449206,28.3854104 25.2393867,29.6416016 L25.2393867,30.230957 C25.2393867,31.4650127 25.4662725,32.4223599 25.9200508,33.1030273 C26.3738291,33.7836948 27.0268173,34.1240234 27.8790351,34.1240234 C28.7146513,34.1240234 29.356572,33.7961459 29.8048164,33.1403809 C30.2530608,32.4846159 30.4799466,31.5286521 30.4854805,30.2724609 L30.4854805,29.6831055 Z M36.8933242,33.9995117 L42.1809219,33.9995117 L42.1809219,36 L34.4030898,36 L34.4030898,23.9140625 L36.8933242,23.9140625 L36.8933242,33.9995117 Z" id="SQL" fill="#EB6D71"></path>
                <path d="M37.0039062,50 L68.9960938,50 C69.5351589,50 70.0039043,50.1933574 70.4023438,50.5800781 C70.8007832,50.9667988 71,51.4414034 71,52.0039062 L71,59.984375 C71,60.5468778 70.8007832,61.0214824 70.4023438,61.4082031 C70.0039043,61.7949238 69.5351589,61.9882812 68.9960938,61.9882812 L37.0039062,61.9882812 C36.4414034,61.9882812 35.9667988,61.7949238 35.5800781,61.4082031 C35.1933574,61.0214824 35,60.5468778 35,59.984375 L35,52.0039062 C35,51.4414034 35.1933574,50.9667988 35.5800781,50.5800781 C35.9667988,50.1933574 36.4414034,50 37.0039062,50 Z M37.0039062,65.9960938 L68.9960938,65.9960938 C69.5351589,65.9960938 70.0039043,66.1894512 70.4023438,66.5761719 C70.8007832,66.9628926 71,67.4374972 71,68 L71,69.3359375 L66.0078125,67.1210938 L53,72.8867188 L53,77.984375 L37.0039062,77.984375 C36.4414034,77.984375 35.9667988,77.7910176 35.5800781,77.4042969 C35.1933574,77.0175762 35,76.5429716 35,75.9804688 L35,68 C35,67.4374972 35.1933574,66.9628926 35.5800781,66.5761719 C35.9667988,66.1894512 36.4414034,65.9960938 37.0039062,65.9960938 Z M37.0039062,81.9921875 L53,81.9921875 C53.0234376,83.1171931 53.1582019,84.2246039 53.4042969,85.3144531 C53.6503919,86.4043023 53.9843729,87.4589793 54.40625,88.4785156 C54.8281271,89.498052 55.3378876,90.4706985 55.9355469,91.3964844 C56.5332061,92.3222703 57.1953089,93.1835898 57.921875,93.9804688 L37.0039062,93.9804688 C36.4414034,93.9804688 35.9667988,93.7871113 35.5800781,93.4003906 C35.1933574,93.0136699 35,92.5507839 35,92.0117188 L35,83.9960938 C35,83.4570286 35.1933574,82.9882832 35.5800781,82.5898438 C35.9667988,82.1914043 36.4414034,81.9921875 37.0039062,81.9921875 Z M46.9882812,57.9804688 L48.9921875,57.9804688 L48.9921875,54.0078125 L46.9882812,54.0078125 L46.9882812,57.9804688 Z M46.9882812,74.0117188 L48.9921875,74.0117188 L48.9921875,70.0039062 L46.9882812,70.0039062 L46.9882812,74.0117188 Z M46.9882812,90.0078125 L48.9921875,90.0078125 L48.9921875,86 L46.9882812,86 L46.9882812,90.0078125 Z M39.0078125,54.0078125 L39.0078125,57.9804688 L42.9804688,57.9804688 L42.9804688,54.0078125 L39.0078125,54.0078125 Z M39.0078125,70.0039062 L39.0078125,74.0117188 L42.9804688,74.0117188 L42.9804688,70.0039062 L39.0078125,70.0039062 Z M39.0078125,86 L39.0078125,90.0078125 L42.9804688,90.0078125 L42.9804688,86 L39.0078125,86 Z M66.0078125,72.0078125 L75.0078125,75.9804688 L75.0078125,81.9921875 C75.0078125,83.3750069 74.7792992,84.7226497 74.3222656,86.0351562 C73.8652321,87.3476628 73.2324259,88.537104 72.4238281,89.6035156 C71.6152303,90.6699272 70.6660211,91.5898399 69.5761719,92.3632812 C68.4863227,93.1367226 67.2968814,93.6757797 66.0078125,93.9804688 C64.7187436,93.6757797 63.523443,93.1367226 62.421875,92.3632812 C61.320307,91.5898399 60.3652384,90.6699272 59.5566406,89.6035156 C58.7480428,88.537104 58.121096,87.3476628 57.6757812,86.0351562 C57.2304665,84.7226497 57.0078125,83.3750069 57.0078125,81.9921875 L57.0078125,75.9804688 L66.0078125,72.0078125 Z M66.0078125,75.875 L60.9804688,78.125 L60.9804688,83.4335938 C60.9804688,84.9804765 61.4609327,86.3925717 62.421875,87.6699219 C63.3828173,88.947272 64.5781179,89.761717 66.0078125,90.1132812 L66.0078125,75.875 Z" id="" fill="#EB6D71"></path>
            </g>
        </g>
    </g>
</svg>