<?xml version="1.0" encoding="UTF-8"?>
<svg width="96px" height="107px" viewBox="0 0 96 107" version="1.1" xmlns="http://www.w3.org/2000/svg" xmlns:xlink="http://www.w3.org/1999/xlink">
    <!-- Generator: Sketch 57.1 (83088) - https://sketch.com -->
    <title>SVG File</title>
    <desc>Created with Sketch.</desc>
    <g id="Page-1" stroke="none" stroke-width="1" fill="none" fill-rule="evenodd">
        <g id="Artboard" transform="translate(-1226.000000, -274.000000)">
            <g id="SVG-File" transform="translate(1226.000000, 274.000000)">
                <polygon id="Shape-Copy-18" fill="#D07012" fill-rule="nonzero" points="95.7694398 106.362769 14 106.362769 14 0 70.2164899 0 95.7694398 25.3244688"></polygon>
                <polygon id="Shape-Copy-16" fill="#FFAD5D" fill-rule="nonzero" points="92.2753025 28.0582454 68 28.0582454 68 4"></polygon>
                <rect id="Rectangle-5-Copy-20" fill="#A75402" x="0" y="16" width="55" height="28" rx="4"></rect>
                <path d="M17.7783203,33.6425781 C17.7783203,33.1445288 17.6025408,32.7622084 17.2509766,32.4956055 C16.8994123,32.2290026 16.2666061,31.9477554 15.3525391,31.6518555 C14.438472,31.3559556 13.7148464,31.0644546 13.1816406,30.7773438 C11.7285084,29.9921836 11.0019531,28.934577 11.0019531,27.6044922 C11.0019531,26.9130825 11.1967754,26.2963894 11.5864258,25.7543945 C11.9760762,25.2123996 12.5356409,24.789064 13.2651367,24.484375 C13.9946326,24.179686 14.813472,24.0273438 15.7216797,24.0273438 C16.6357468,24.0273438 17.4501917,24.1928694 18.1650391,24.5239258 C18.8798864,24.8549821 19.4350566,25.3222626 19.8305664,25.9257812 C20.2260762,26.5292999 20.4238281,27.2148399 20.4238281,27.9824219 L17.7871094,27.9824219 C17.7871094,27.3964814 17.6025409,26.9409196 17.2333984,26.6157227 C16.864256,26.2905257 16.3457065,26.1279297 15.6777344,26.1279297 C15.0331999,26.1279297 14.5322283,26.2641588 14.1748047,26.5366211 C13.817381,26.8090834 13.6386719,27.1679665 13.6386719,27.6132812 C13.6386719,28.029299 13.8481424,28.3779283 14.2670898,28.6591797 C14.6860373,28.9404311 15.3027303,29.2041003 16.1171875,29.4501953 C17.617195,29.9013694 18.7099575,30.4609342 19.3955078,31.1289062 C20.0810581,31.7968783 20.4238281,32.6289013 20.4238281,33.625 C20.4238281,34.7324274 20.004887,35.6010711 19.1669922,36.230957 C18.3290974,36.860843 17.201179,37.1757812 15.7832031,37.1757812 C14.7988232,37.1757812 13.9023478,36.9956073 13.09375,36.6352539 C12.2851522,36.2749005 11.6684592,35.7812531 11.2436523,35.1542969 C10.8188455,34.5273438 10.6064453,33.8007854 10.6064453,32.9746094 L13.2519531,32.9746094 C13.2519531,34.3867258 14.0956947,35.0927734 15.7832031,35.0927734 C16.4101594,35.0927734 16.8994123,34.9653333 17.2509766,34.7104492 C17.6025408,34.4555651 17.7783203,34.0996117 17.7783203,33.6425781 Z M26.5045234,33.8271484 L29.4049141,24.203125 L32.3404609,24.203125 L27.8844062,37 L25.1334297,37 L20.6949531,24.203125 L23.6217109,24.203125 L26.5045234,33.8271484 Z M43.1233047,35.3828125 C42.6486929,35.9511747 41.9778012,36.3920883 41.1106094,36.7055664 C40.2434175,37.0190445 39.2824896,37.1757812 38.2277969,37.1757812 C37.1203694,37.1757812 36.1491877,36.9340844 35.3142226,36.4506836 C34.4792575,35.9672827 33.8347327,35.2656296 33.3806289,34.3457031 C32.9265251,33.4257767 32.6936172,32.3447328 32.6818984,31.1025391 L32.6818984,30.2324219 C32.6818984,28.9550717 32.8972283,27.8491258 33.3278945,26.9145508 C33.7585607,25.9799758 34.3796483,25.2651392 35.1911758,24.7700195 C36.0027033,24.2748999 36.9533773,24.0273438 38.0432265,24.0273438 C39.5608123,24.0273438 40.7473238,24.3891565 41.6027969,25.112793 C42.4582699,25.8364294 42.9651007,26.8896415 43.1233047,28.2724609 L40.5568984,28.2724609 C40.4397103,27.5400354 40.1804356,27.0039079 39.7790664,26.6640625 C39.3776972,26.3242171 38.8254566,26.1542969 38.1223281,26.1542969 C37.2258392,26.1542969 36.5432289,26.4912076 36.0744765,27.1650391 C35.6057242,27.8388706 35.3684219,28.8408137 35.3625625,30.1708984 L35.3625625,30.9882812 C35.3625625,32.3300848 35.6174427,33.3437466 36.1272109,34.0292969 C36.6369791,34.7148472 37.3840419,35.0576172 38.3684219,35.0576172 C39.3586612,35.0576172 40.0647088,34.8466818 40.4865859,34.4248047 L40.4865859,32.21875 L38.0871719,32.21875 L38.0871719,30.2763672 L43.1233047,30.2763672 L43.1233047,35.3828125 Z" id="SVG" fill="#FFAD5D"></path>
                <path d="M33,71.9765625 L47.9765625,86.953125 L53.671875,81.2578125 L44.3203125,71.9765625 L53.671875,62.625 L47.9765625,57 L33,71.9765625 Z M77.6484375,71.9765625 L62.671875,57 L56.9765625,62.625 L66.328125,71.9765625 L56.9765625,81.2578125 L62.671875,86.953125 L77.6484375,71.9765625 Z" id="-copy" fill="#FFAD5D"></path>
            </g>
        </g>
    </g>
</svg>