<?xml version="1.0" encoding="UTF-8"?>
<svg width="96px" height="107px" viewBox="0 0 96 107" version="1.1" xmlns="http://www.w3.org/2000/svg" xmlns:xlink="http://www.w3.org/1999/xlink">
    <!-- Generator: Sketch 57.1 (83088) - https://sketch.com -->
    <title>Unknown</title>
    <desc>Created with Sketch.</desc>
    <g id="Page-1" stroke="none" stroke-width="1" fill="none" fill-rule="evenodd">
        <g id="My-Desings" transform="translate(-100.000000, -128.000000)">
            <g id="Unknown" transform="translate(100.000000, 128.000000)">
                <polygon id="Shape-Copy-243" fill="#9E9E9E" fill-rule="nonzero" points="95.7694398 106.362769 14 106.362769 14 0 70.2164899 0 95.7694398 25.3244688"></polygon>
                <polygon id="Shape-Copy-242" fill="#CFCFCF" fill-rule="nonzero" points="92.2753025 28.0582454 68 28.0582454 68 4"></polygon>
                <rect id="Rectangle-5-Copy-202" fill="#707070" x="0" y="16" width="55" height="28" rx="4"></rect>
                <text id="???" font-family="Roboto-Bold, Roboto" font-size="18" font-weight="bold" letter-spacing="-0.432" fill="#CFCFCF">
                    <tspan x="14.213918" y="37">???</tspan>
                </text>
                <path d="M51.3730469,81.0869141 C51.3730469,78.8082568 51.6497368,76.9934963 52.203125,75.6425781 C52.7565132,74.2916599 53.7696866,72.9611068 55.2426758,71.6508789 C56.7156649,70.340651 57.6962866,69.2745809 58.1845703,68.4526367 C58.672854,67.6306925 58.9169922,66.764002 58.9169922,65.8525391 C58.9169922,63.1018743 57.6474736,61.7265625 55.1083984,61.7265625 C53.9039653,61.7265625 52.9396195,62.0968387 52.215332,62.8374023 C51.4910446,63.5779659 51.1126304,64.5992773 51.0800781,65.9013672 L44,65.9013672 C44.0325522,62.7926277 45.0375878,60.3593838 47.0151367,58.6015625 C48.9926857,56.8437412 51.6904126,55.9648438 55.1083984,55.9648438 C58.5589365,55.9648438 61.2363186,56.7989825 63.140625,58.4672852 C65.0449314,60.1355878 65.9970703,62.4915212 65.9970703,65.5351562 C65.9970703,66.9186267 65.6878286,68.224766 65.0693359,69.4536133 C64.4508433,70.6824606 63.3684973,72.0455654 61.8222656,73.5429688 L59.8447266,75.4228516 C58.6077412,76.6110085 57.8997405,78.0025962 57.7207031,79.5976562 L57.6230469,81.0869141 L51.3730469,81.0869141 Z M50.6650391,88.5820312 C50.6650391,87.491531 51.0353153,86.5922887 51.7758789,85.8842773 C52.5164425,85.176266 53.4645125,84.8222656 54.6201172,84.8222656 C55.7757219,84.8222656 56.7237919,85.176266 57.4643555,85.8842773 C58.2049191,86.5922887 58.5751953,87.491531 58.5751953,88.5820312 C58.5751953,89.6562554 58.213057,90.5432908 57.4887695,91.2431641 C56.7644821,91.9430374 55.8082742,92.2929688 54.6201172,92.2929688 C53.4319602,92.2929688 52.4757523,91.9430374 51.7514648,91.2431641 C51.0271774,90.5432908 50.6650391,89.6562554 50.6650391,88.5820312 Z" id="?" fill="#CFCFCF"></path>
            </g>
        </g>
    </g>
</svg>