<?xml version="1.0" encoding="UTF-8"?>
<svg width="96px" height="107px" viewBox="0 0 96 107" version="1.1" xmlns="http://www.w3.org/2000/svg" xmlns:xlink="http://www.w3.org/1999/xlink">
    <!-- Generator: Sketch 57.1 (83088) - https://sketch.com -->
    <title>URL</title>
    <desc>Created with Sketch.</desc>
    <g id="Page-1" stroke="none" stroke-width="1" fill="none" fill-rule="evenodd">
        <g id="Artboard" transform="translate(-2261.000000, -564.000000)">
            <g id="URL" transform="translate(2261.000000, 564.000000)">
                <polygon id="Shape-Copy-133" fill="#11907C" fill-rule="nonzero" points="95.7694398 106.362769 14 106.362769 14 0 70.2164899 0 95.7694398 25.3244688"></polygon>
                <polygon id="Shape-Copy-132" fill="#37D2BA" fill-rule="nonzero" points="92.2753025 28.0582454 68 28.0582454 68 4"></polygon>
                <rect id="Rectangle-5-Copy-106" fill="#0D6254" x="0" y="16" width="55" height="28" rx="4"></rect>
                <path d="M22.2265625,23.9140625 L22.2265625,31.8745117 C22.2265625,33.1971095 21.812911,34.2429975 20.9855957,35.012207 C20.1582804,35.7814166 19.028002,36.1660156 17.5947266,36.1660156 C16.1835867,36.1660156 15.0629924,35.7924842 14.2329102,35.0454102 C13.4028279,34.2983361 12.9794923,33.2718164 12.9628906,31.9658203 L12.9628906,23.9140625 L15.453125,23.9140625 L15.453125,31.8911133 C15.453125,32.6824584 15.6426576,33.2593569 16.0217285,33.6218262 C16.4007994,33.9842954 16.9251269,34.1655273 17.5947266,34.1655273 C18.9947987,34.1655273 19.7058918,33.4295321 19.7280273,31.9575195 L19.7280273,23.9140625 L22.2265625,23.9140625 Z M28.3106758,31.5756836 L26.3267891,31.5756836 L26.3267891,36 L23.8365547,36 L23.8365547,23.9140625 L28.3272773,23.9140625 C29.7550188,23.9140625 30.8562448,24.2322559 31.6309883,24.8686523 C32.4057317,25.5050488 32.7930976,26.4042911 32.7930976,27.5664062 C32.7930976,28.3909546 32.6146326,29.0785291 32.2576973,29.6291504 C31.9007619,30.1797716 31.359833,30.6183252 30.6348945,30.9448242 L33.2496406,35.8837891 L33.2496406,36 L30.5767891,36 L28.3106758,31.5756836 Z M26.3267891,29.5585938 L28.3355781,29.5585938 C28.9609068,29.5585938 29.4451142,29.399497 29.7882148,29.0812988 C30.1313155,28.7631006 30.3028633,28.3245471 30.3028633,27.765625 C30.3028633,27.1956352 30.1409997,26.7473975 29.8172676,26.4208984 C29.4935355,26.0943994 28.996877,25.9311523 28.3272773,25.9311523 L26.3267891,25.9311523 L26.3267891,29.5585938 Z M36.7439101,33.9995117 L42.0315078,33.9995117 L42.0315078,36 L34.2536758,36 L34.2536758,23.9140625 L36.7439101,23.9140625 L36.7439101,33.9995117 Z" fill="#37D2BA"></path>
                <path d="M66.78125,82.7617188 C67.4375033,82.0585902 68.0234349,81.2968791 68.5390625,80.4765625 C69.0546901,79.6562459 69.4941388,78.7890671 69.8574219,77.875 C70.2207049,76.9609329 70.5019521,76.0117237 70.7011719,75.0273438 C70.9003916,74.0429638 71,73.0351614 71,72.0039062 C71,70.3163978 70.7539087,68.7050858 70.2617188,67.1699219 C69.7695288,65.6347579 69.0781295,64.228522 68.1875,62.9511719 C67.2968705,61.6738217 66.2421936,60.5371144 65.0234375,59.5410156 C63.8046814,58.5449169 62.4570386,57.7539092 60.9804688,57.1679688 L60.9804688,57.9765625 C60.9804688,59.0781305 60.5878946,60.0214804 59.8027344,60.8066406 C59.0175742,61.5918008 58.0859429,61.984375 57.0078125,61.984375 L53,61.984375 L53,65.9921875 C53,66.5312527 52.8007832,66.999998 52.4023438,67.3984375 C52.0039043,67.796877 51.5351589,67.9960938 50.9960938,67.9960938 L46.9882812,67.9960938 L46.9882812,72.0039062 L58.9765625,72.0039062 C59.5390653,72.0039062 60.0136699,72.1972637 60.4003906,72.5839844 C60.7871113,72.9707051 60.9804688,73.4453097 60.9804688,74.0078125 L60.9804688,79.984375 L62.984375,79.984375 C63.8750045,79.984375 64.6660122,80.2480442 65.3574219,80.7753906 C66.0488316,81.302737 66.5234362,81.9648398 66.78125,82.7617188 Z M53,87.859375 L53,83.9921875 C51.898432,83.9921875 50.9550821,83.5996133 50.1699219,82.8144531 C49.3847617,82.0292929 48.9921875,81.085943 48.9921875,79.984375 L48.9921875,77.9804688 L39.4296875,68.4179688 C39.2890618,68.9804716 39.1835941,69.5605439 39.1132812,70.1582031 C39.0429684,70.7558624 39.0078125,71.3710906 39.0078125,72.0039062 C39.0078125,74.0429789 39.3652308,75.970694 40.0800781,77.7871094 C40.7949254,79.6035247 41.7792906,81.2148367 43.0332031,82.6210938 C44.2871156,84.0273508 45.7695227,85.1874954 47.4804688,86.1015625 C49.1914148,87.0156296 51.0312402,87.6015612 53,87.859375 Z M55.0039062,52 C57.7461075,52 60.3359253,52.5214792 62.7734375,53.5644531 C65.2109497,54.6074271 67.3320222,56.0371003 69.1367188,57.8535156 C70.9414153,59.669931 72.3710885,61.7910035 73.4257812,64.2167969 C74.480474,66.6425903 75.0078125,69.2382674 75.0078125,72.0039062 C75.0078125,74.7461075 74.480474,77.3359253 73.4257812,79.7734375 C72.3710885,82.2109497 70.9414153,84.3320222 69.1367188,86.1367188 C67.3320222,87.9414153 65.2109497,89.3710885 62.7734375,90.4257812 C60.3359253,91.480474 57.7461075,92.0078125 55.0039062,92.0078125 C52.2382674,92.0078125 49.6425903,91.480474 47.2167969,90.4257812 C44.7910035,89.3710885 42.669931,87.9414153 40.8535156,86.1367188 C39.0371003,84.3320222 37.6074271,82.2109497 36.5644531,79.7734375 C35.5214792,77.3359253 35,74.7461075 35,72.0039062 C35,69.2382674 35.5214792,66.6425903 36.5644531,64.2167969 C37.6074271,61.7910035 39.0371003,59.669931 40.8535156,57.8535156 C42.669931,56.0371003 44.7910035,54.6074271 47.2167969,53.5644531 C49.6425903,52.5214792 52.2382674,52 55.0039062,52 Z" id="" fill="#37D2BA"></path>
            </g>
        </g>
    </g>
</svg>