<?xml version="1.0" encoding="UTF-8"?>
<svg width="96px" height="107px" viewBox="0 0 96 107" version="1.1" xmlns="http://www.w3.org/2000/svg" xmlns:xlink="http://www.w3.org/1999/xlink">
    <!-- Generator: Sketch 57.1 (83088) - https://sketch.com -->
    <title>VSX</title>
    <desc>Created with Sketch.</desc>
    <g id="Page-1" stroke="none" stroke-width="1" fill="none" fill-rule="evenodd">
        <g id="Artboard" transform="translate(-1510.000000, -1572.000000)">
            <g id="VSX" transform="translate(1510.000000, 1572.000000)">
                <polygon id="Shape-Copy-246" fill="#7BB6F6" fill-rule="nonzero" points="92.2753025 28.0582454 68 28.0582454 68 4"></polygon>
                <rect id="Rectangle-5-Copy-205" fill="#2C7ACD" x="0" y="16" width="55" height="28" rx="4"></rect>
                <text id="DOC-Copy-145" font-family="Roboto-Bold, Roboto" font-size="18" font-weight="bold" letter-spacing="-0.432" fill="#7BB6F6">
                    <tspan x="9" y="37">DO</tspan>
                    <tspan x="32.2619766" y="37" letter-spacing="-0.5184">C</tspan>
                </text>
                <polygon id="Path-Copy-157" fill="#76B1F1" points="40 67.9174837 41.9449891 67.9174837 41.9449891 85.4227912 48.2664065 85.4227912 53.1288793 76.7714812 53.1288793 85.4227912 58.9638467 85.4227912 67.7165005 67.9174837 69.6614896 67.9174837 69.6614896 65 60.9090385 65 60.9090385 67.9174837 62.3677803 67.9174837 58.9638467 74.6238046 58.9638467 65 52.1563847 65 46.3212147 75.9814054 46.3212147 67.9174837 48.2664065 67.9174837 48.2664065 65 40 65"></polygon>
                <polygon id="Shape-Copy-245" fill="#7BB6F6" fill-rule="nonzero" points="92.2753025 28.0582454 68 28.0582454 68 4"></polygon>
                <rect id="Rectangle-5-Copy-204" fill="#2C7ACD" x="0" y="16" width="55" height="28" rx="4"></rect>
                <text id="DOC-Copy-144" font-family="Roboto-Bold, Roboto" font-size="18" font-weight="bold" letter-spacing="-0.432" fill="#7BB6F6">
                    <tspan x="9" y="37">DO</tspan>
                    <tspan x="32.2619766" y="37" letter-spacing="-0.5184">C</tspan>
                </text>
                <polygon id="Path-Copy-156" fill="#FFFFFF" points="35 63.9009303 37.6006202 63.9009303 37.6006202 87.307054 46.0529068 87.307054 52.5544573 75.7394976 52.5544573 87.307054 60.3563178 87.307054 72.0593797 63.9009303 74.6599998 63.9009303 74.6599998 60 62.957209 60 62.957209 63.9009303 64.9076742 63.9009303 60.3563178 72.8678665 60.3563178 60 51.2541472 60 43.4520156 74.6830972 43.4520156 63.9009303 46.0529068 63.9009303 46.0529068 60 35 60"></polygon>
                <polygon id="Shape-Copy-244" fill="#7BB6F6" fill-rule="nonzero" points="92.2753025 28.0582454 68 28.0582454 68 4"></polygon>
                <rect id="Rectangle-5-Copy-203" fill="#2C7ACD" x="0" y="16" width="55" height="28" rx="4"></rect>
                <text id="DOC-Copy-143" font-family="Roboto-Bold, Roboto" font-size="18" font-weight="bold" letter-spacing="-0.432" fill="#7BB6F6">
                    <tspan x="9" y="37">DO</tspan>
                    <tspan x="32.2619766" y="37" letter-spacing="-0.5184">C</tspan>
                </text>
                <polygon id="Path-Copy-155" fill="#76B1F1" points="40 67.9174837 41.9449891 67.9174837 41.9449891 85.4227912 48.2664065 85.4227912 53.1288793 76.7714812 53.1288793 85.4227912 58.9638467 85.4227912 67.7165005 67.9174837 69.6614896 67.9174837 69.6614896 65 60.9090385 65 60.9090385 67.9174837 62.3677803 67.9174837 58.9638467 74.6238046 58.9638467 65 52.1563847 65 46.3212147 75.9814054 46.3212147 67.9174837 48.2664065 67.9174837 48.2664065 65 40 65"></polygon>
                <polygon id="Shape-Copy-243" fill="#B9B8A2" fill-rule="nonzero" points="95.7694398 106.362769 14 106.362769 14 0 70.2164899 0 95.7694398 25.3244688"></polygon>
                <polygon id="Shape-Copy-242" fill="#E2E0C1" fill-rule="nonzero" points="92.2753025 28.0582454 68 28.0582454 68 4"></polygon>
                <rect id="Rectangle-5-Copy-202" fill="#7E7F72" x="0" y="16" width="55" height="28" rx="4"></rect>
                <path d="M17.5449219,33.003418 L20.2841797,23.9140625 L23.0566406,23.9140625 L18.8481445,36 L16.25,36 L12.0581055,23.9140625 L14.8222656,23.9140625 L17.5449219,33.003418 Z M30.0289375,32.8291016 C30.0289375,32.3587216 29.8629235,31.9976412 29.5308906,31.7458496 C29.1988577,31.494058 28.6012074,31.2284356 27.7379219,30.9489746 C26.8746363,30.6695136 26.1912121,30.3942071 25.6876289,30.1230469 C24.3152262,29.3815067 23.6290351,28.382656 23.6290351,27.1264648 C23.6290351,26.4734668 23.813034,25.8910345 24.1810371,25.3791504 C24.5490402,24.8672663 25.077518,24.4674494 25.7664863,24.1796875 C26.4554546,23.8919256 27.228803,23.7480469 28.0865547,23.7480469 C28.9498402,23.7480469 29.7190383,23.9043767 30.3941719,24.217041 C31.0693054,24.5297053 31.5936329,24.9710258 31.9671699,25.5410156 C32.3407069,26.1110055 32.5274726,26.7584599 32.5274726,27.4833984 L30.0372383,27.4833984 C30.0372383,26.9300103 29.8629236,26.4997574 29.5142891,26.192627 C29.1656545,25.8854965 28.6759133,25.7319336 28.0450508,25.7319336 C27.4363238,25.7319336 26.963184,25.8605944 26.6256172,26.1179199 C26.2880504,26.3752454 26.1192695,26.7141906 26.1192695,27.1347656 C26.1192695,27.5276712 26.3171028,27.8569323 26.7127754,28.1225586 C27.1084479,28.3881849 27.6908803,28.6372059 28.4600898,28.8696289 C29.8767636,29.2957378 30.9088171,29.8242156 31.5562812,30.4550781 C32.2037454,31.0859407 32.5274726,31.8717401 32.5274726,32.8125 C32.5274726,33.8584037 32.131806,34.6787893 31.3404609,35.2736816 C30.5491158,35.8685739 29.4838595,36.1660156 28.1446601,36.1660156 C27.214968,36.1660156 26.3682968,35.9958513 25.6046211,35.6555176 C24.8409454,35.3151838 24.2585131,34.8489613 23.8573066,34.2568359 C23.4561002,33.6647106 23.2555,32.9785195 23.2555,32.1982422 L25.7540351,32.1982422 C25.7540351,33.5319077 26.5509022,34.1987305 28.1446601,34.1987305 C28.7367855,34.1987305 29.1988577,34.0783703 29.5308906,33.8376465 C29.8629235,33.5969226 30.0289375,33.2607443 30.0289375,32.8291016 Z M38.1052383,28.0810547 L40.3713515,23.9140625 L43.2351211,23.9140625 L39.7155898,29.9072266 L43.3264297,36 L40.429457,36 L38.1052383,31.7666016 L35.7810195,36 L32.8840469,36 L36.4948867,29.9072266 L32.9753554,23.9140625 L35.839125,23.9140625 L38.1052383,28.0810547 Z" fill="#E2E0C1"></path>
                <polygon id="Rectangle-path" fill="#E2E0C1" fill-rule="nonzero" points="36 81 47 81 47 92 36 92"></polygon>
                <path d="M67.002229,68.1494737 L60.8857621,62.0189474 C60.4488715,61.5810526 60.4488715,60.9242105 60.8857621,60.4863158 L67.002229,54.3557895 C67.4391195,53.9178947 68.0944553,53.9178947 68.5313458,54.3557895 L74.6478127,60.4863158 C75.0847033,60.9242105 75.0847033,61.5810526 74.6478127,62.0189474 L68.5313458,68.1494737 C68.0944553,68.5873684 67.4391195,68.5873684 67.002229,68.1494737 Z" id="Shape" fill="#E2E0C1" fill-rule="nonzero"></path>
                <ellipse id="Oval" fill="#E2E0C1" fill-rule="nonzero" cx="41.5533575" cy="61.2526316" rx="6.55335748" ry="6.56842105"></ellipse>
                <ellipse id="Oval" fill="#E2E0C1" fill-rule="nonzero" cx="67.7667874" cy="86.4315789" rx="6.55335748" ry="6.56842105"></ellipse>
                <rect id="Rectangle-path" fill="#E2E0C1" fill-rule="nonzero" x="40.3175676" y="73.2727273" width="2.31756757" height="5.45454544"></rect>
                <polygon id="Shape" fill="#E2E0C1" fill-rule="nonzero" points="41.4763514 70 38 74.3636364 44.9527027 74.3636364"></polygon>
                <polygon id="Rectangle-path" fill="#E2E0C1" fill-rule="nonzero" points="50 60.3333333 55.4176904 60.3333333 55.4176904 62.6666667 50 62.6666667"></polygon>
                <polygon id="Shape" fill="#E2E0C1" fill-rule="nonzero" points="58.6683047 61.5 54.3341523 58 54.3341523 65"></polygon>
                <rect id="Rectangle-path" fill="#E2E0C1" fill-rule="nonzero" x="66.3175676" y="70" width="2.31756757" height="5.45454544"></rect>
                <polygon id="Shape" fill="#E2E0C1" fill-rule="nonzero" points="67.4763514 78.7272727 70.9527027 74.3636364 64 74.3636364"></polygon>
            </g>
        </g>
    </g>
</svg>