<?xml version="1.0" encoding="UTF-8"?>
<svg width="96px" height="107px" viewBox="0 0 96 107" version="1.1" xmlns="http://www.w3.org/2000/svg" xmlns:xlink="http://www.w3.org/1999/xlink">
    <!-- Generator: Sketch 57.1 (83088) - https://sketch.com -->
    <title>Experience Design</title>
    <desc>Created with Sketch.</desc>
    <g id="Page-1" stroke="none" stroke-width="1" fill="none" fill-rule="evenodd">
        <g id="Artboard" transform="translate(-2261.000000, -128.000000)">
            <g id="Experience-Design" transform="translate(2261.000000, 128.000000)">
                <polygon id="Shape-Copy-213" fill="#390A2C" fill-rule="nonzero" points="95.7694398 106.362769 14 106.362769 14 0 70.2164899 0 95.7694398 25.3244688"></polygon>
                <polygon id="Shape-Copy-212" fill="#FF2DC2" fill-rule="nonzero" points="92.2753025 28.0582454 68 28.0582454 68 4"></polygon>
                <rect id="Rectangle-5-Copy-176" fill="#000000" x="0" y="16" width="55" height="28" rx="4"></rect>
                <path d="M21.7216797,28.6152344 L24.1210938,24.203125 L27.1533203,24.203125 L23.4267578,30.5488281 L27.25,37 L24.1826172,37 L21.7216797,32.5175781 L19.2607422,37 L16.1933594,37 L20.0166016,30.5488281 L16.2900391,24.203125 L19.3222656,24.203125 L21.7216797,28.6152344 Z M28.1451484,37 L28.1451484,24.203125 L32.0826484,24.203125 C33.2076541,24.203125 34.2139916,24.4565404 35.1016914,24.9633789 C35.9893911,25.4702174 36.6822553,26.1909133 37.1803047,27.1254883 C37.678354,28.0600633 37.927375,29.1220644 37.927375,30.3115234 L37.927375,30.9003906 C37.927375,32.0898497 37.6827485,33.1474563 37.1934883,34.0732422 C36.704228,34.9990281 36.0142935,35.7167943 35.1236641,36.2265625 C34.2330346,36.7363307 33.2281618,36.9941406 32.1090156,37 L28.1451484,37 Z M30.7818672,26.3388672 L30.7818672,34.8818359 L32.0562812,34.8818359 C33.0875364,34.8818359 33.8756145,34.5449252 34.4205391,33.8710938 C34.9654637,33.1972623 35.2437812,32.2334047 35.2555,30.9794922 L35.2555,30.3027344 C35.2555,29.0019466 34.9859714,28.0161166 34.4469062,27.3452148 C33.907841,26.6743131 33.119763,26.3388672 32.0826484,26.3388672 L30.7818672,26.3388672 Z" id="XD" fill="#FF2DC2"></path>
                <path d="M57.0039062,54 L57.0039062,65.9882812 L73,65.9882812 L73,54 L57.0039062,54 Z M57.0039062,90 L73,90 L73,69.9960938 L57.0039062,69.9960938 L57.0039062,90 Z M37,90 L52.9960938,90 L52.9960938,77.9765625 L37,77.9765625 L37,90 Z M37,74.0039062 L52.9960938,74.0039062 L52.9960938,54 L37,54 L37,74.0039062 Z" id="" fill="#FF2DC2"></path>
            </g>
        </g>
    </g>
</svg>