<?xml version="1.0" encoding="UTF-8"?>
<svg width="96px" height="107px" viewBox="0 0 96 107" version="1.1" xmlns="http://www.w3.org/2000/svg" xmlns:xlink="http://www.w3.org/1999/xlink">
    <!-- Generator: Sketch 57.1 (83088) - https://sketch.com -->
    <title>XLS</title>
    <desc>Created with Sketch.</desc>
    <g id="Page-1" stroke="none" stroke-width="1" fill="none" fill-rule="evenodd">
        <g id="Artboard" transform="translate(-1510.000000, -564.000000)">
            <g id="XLS" transform="translate(1510.000000, 564.000000)">
                <polygon id="Shape-Copy-386" fill="#79A92E" fill-rule="nonzero" points="95.7694398 106.362769 14 106.362769 14 0 70.2164899 0 95.7694398 25.3244688"></polygon>
                <polygon id="Shape-Copy-385" fill="#99CD48" fill-rule="nonzero" points="92.2753025 28.0582454 68 28.0582454 68 4"></polygon>
                <rect id="Rectangle-5-Copy-318" fill="#658C28" x="0" y="16" width="55" height="28" rx="4"></rect>
                <path d="M16.7216797,28.6152344 L19.1210938,24.203125 L22.1533203,24.203125 L18.4267578,30.5488281 L22.25,37 L19.1826172,37 L16.7216797,32.5175781 L14.2607422,37 L11.1933594,37 L15.0166016,30.5488281 L11.2900391,24.203125 L14.3222656,24.203125 L16.7216797,28.6152344 Z M25.7818672,34.8818359 L31.3805,34.8818359 L31.3805,37 L23.1451484,37 L23.1451484,24.203125 L25.7818672,24.203125 L25.7818672,34.8818359 Z M39.0959609,33.6425781 C39.0959609,33.1445288 38.9201814,32.7622084 38.5686172,32.4956055 C38.2170529,32.2290026 37.5842467,31.9477554 36.6701797,31.6518555 C35.7561126,31.3559556 35.032487,31.0644546 34.4992812,30.7773438 C33.046149,29.9921836 32.3195937,28.934577 32.3195937,27.6044922 C32.3195937,26.9130825 32.514416,26.2963894 32.9040664,25.7543945 C33.2937168,25.2123996 33.8532815,24.789064 34.5827773,24.484375 C35.3122732,24.179686 36.1311126,24.0273438 37.0393203,24.0273438 C37.9533874,24.0273438 38.7678323,24.1928694 39.4826797,24.5239258 C40.197527,24.8549821 40.7526972,25.3222626 41.148207,25.9257812 C41.5437168,26.5292999 41.7414687,27.2148399 41.7414687,27.9824219 L39.10475,27.9824219 C39.10475,27.3964814 38.9201815,26.9409196 38.551039,26.6157227 C38.1818966,26.2905257 37.6633471,26.1279297 36.995375,26.1279297 C36.3508405,26.1279297 35.849869,26.2641588 35.4924453,26.5366211 C35.1350216,26.8090834 34.9563125,27.1679665 34.9563125,27.6132812 C34.9563125,28.029299 35.165783,28.3779283 35.5847304,28.6591797 C36.0036779,28.9404311 36.6203709,29.2041003 37.4348281,29.4501953 C38.9348356,29.9013694 40.0275981,30.4609342 40.7131484,31.1289062 C41.3986987,31.7968783 41.7414687,32.6289013 41.7414687,33.625 C41.7414687,34.7324274 41.3225276,35.6010711 40.4846328,36.230957 C39.646738,36.860843 38.5188196,37.1757812 37.1008437,37.1757812 C36.1164638,37.1757812 35.2199884,36.9956073 34.4113906,36.6352539 C33.6027928,36.2749005 32.9860998,35.7812531 32.5612929,35.1542969 C32.1364861,34.5273438 31.9240859,33.8007854 31.9240859,32.9746094 L34.5695937,32.9746094 C34.5695937,34.3867258 35.4133353,35.0927734 37.1008437,35.0927734 C37.7278,35.0927734 38.2170529,34.9653333 38.5686172,34.7104492 C38.9201814,34.4555651 39.0959609,34.0996117 39.0959609,33.6425781 Z" fill="#99CD48"></path>
                <polygon id="-copy-3" fill="#99CD48" points="73.5625 57 59.375 57 59.375 64.125 62.875 64.125 55.8125 70.0625 48.6875 64.125 52.25 64.125 52.25 57 38 57 38 64.125 41.5625 64.125 52.25 73 41.5625 81.875 38 81.875 38 89 52.25 89 52.25 81.875 48.6875 81.875 55.8125 75.9375 62.875 81.875 59.375 81.875 59.375 89 73.5625 89 73.5625 81.875 70 81.875 59.375 73 70 64.125 73.5625 64.125"></polygon>
            </g>
        </g>
    </g>
</svg>