<?xml version="1.0" encoding="UTF-8"?>
<svg width="96px" height="107px" viewBox="0 0 96 107" version="1.1" xmlns="http://www.w3.org/2000/svg" xmlns:xlink="http://www.w3.org/1999/xlink">
    <!-- Generator: Sketch 57.1 (83088) - https://sketch.com -->
    <title>XLSX</title>
    <desc>Created with Sketch.</desc>
    <g id="Page-1" stroke="none" stroke-width="1" fill="none" fill-rule="evenodd">
        <g id="Artboard" transform="translate(-1806.000000, -564.000000)">
            <g id="XLSX" transform="translate(1806.000000, 564.000000)">
                <polygon id="Shape-Copy-390" fill="#79A92E" fill-rule="nonzero" points="95.7694398 106.362769 14 106.362769 14 0 70.2164899 0 95.7694398 25.3244688"></polygon>
                <polygon id="Shape-Copy-389" fill="#99CD48" fill-rule="nonzero" points="92.2753025 28.0582454 68 28.0582454 68 4"></polygon>
                <rect id="Rectangle-5-Copy-320" fill="#658C28" x="0" y="16" width="55" height="28" rx="4"></rect>
                <path d="M13.2211914,28.3330078 L15.4873047,24.1660156 L18.3510742,24.1660156 L14.831543,30.1591797 L18.4423828,36.2519531 L15.5454102,36.2519531 L13.2211914,32.0185547 L10.8969727,36.2519531 L8,36.2519531 L11.6108398,30.1591797 L8.09130859,24.1660156 L10.9550781,24.1660156 L13.2211914,28.3330078 Z M21.7540351,34.2514648 L27.0416328,34.2514648 L27.0416328,36.2519531 L19.2638008,36.2519531 L19.2638008,24.1660156 L21.7540351,24.1660156 L21.7540351,34.2514648 Z M34.304457,33.0810547 C34.304457,32.6106747 34.138443,32.2495944 33.8064101,31.9978027 C33.4743772,31.7460111 32.876727,31.4803888 32.0134414,31.2009277 C31.1501558,30.9214667 30.4667317,30.6461602 29.9631484,30.375 C28.5907457,29.6334598 27.9045547,28.6346091 27.9045547,27.378418 C27.9045547,26.7254199 28.0885535,26.1429876 28.4565566,25.6311035 C28.8245598,25.1192194 29.3530375,24.7194025 30.0420058,24.4316406 C30.7309741,24.1438788 31.5043225,24 32.3620742,24 C33.2253598,24 33.9945578,24.1563298 34.6696914,24.4689941 C35.344825,24.7816585 35.8691524,25.2229789 36.2426894,25.7929688 C36.6162265,26.3629586 36.8029922,27.010413 36.8029922,27.7353516 L34.3127578,27.7353516 C34.3127578,27.1819634 34.1384431,26.7517105 33.7898086,26.4445801 C33.441174,26.1374496 32.9514328,25.9838867 32.3205703,25.9838867 C31.7118433,25.9838867 31.2387035,26.1125475 30.9011367,26.369873 C30.5635699,26.6271986 30.394789,26.9661437 30.394789,27.3867188 C30.394789,27.7796244 30.5926223,28.1088854 30.9882949,28.3745117 C31.3839675,28.640138 31.9663998,28.889159 32.7356094,29.121582 C34.1522831,29.5476909 35.1843366,30.0761687 35.8318008,30.7070312 C36.4792649,31.3378938 36.8029922,32.1236932 36.8029922,33.0644531 C36.8029922,34.1103568 36.4073255,34.9307425 35.6159804,35.5256348 C34.8246353,36.1205271 33.7593791,36.4179688 32.4201797,36.4179688 C31.4904875,36.4179688 30.6438163,36.2478044 29.8801406,35.9074707 C29.1164649,35.567137 28.5340326,35.1009144 28.1328261,34.5087891 C27.7316197,33.9166637 27.5310195,33.2304727 27.5310195,32.4501953 L30.0295547,32.4501953 C30.0295547,33.7838608 30.8264217,34.4506836 32.4201797,34.4506836 C33.012305,34.4506836 33.4743772,34.3303235 33.8064101,34.0895996 C34.138443,33.8488757 34.304457,33.5126975 34.304457,33.0810547 Z M42.3807578,28.3330078 L44.6468711,24.1660156 L47.5106406,24.1660156 L43.9911093,30.1591797 L47.6019492,36.2519531 L44.7049765,36.2519531 L42.3807578,32.0185547 L40.056539,36.2519531 L37.1595664,36.2519531 L40.7704062,30.1591797 L37.250875,24.1660156 L40.1146445,24.1660156 L42.3807578,28.3330078 Z" fill="#99CD48"></path>
                <polygon id="-copy-5" fill="#99CD48" points="73.5625 57 59.375 57 59.375 64.125 62.875 64.125 55.8125 70.0625 48.6875 64.125 52.25 64.125 52.25 57 38 57 38 64.125 41.5625 64.125 52.25 73 41.5625 81.875 38 81.875 38 89 52.25 89 52.25 81.875 48.6875 81.875 55.8125 75.9375 62.875 81.875 59.375 81.875 59.375 89 73.5625 89 73.5625 81.875 70 81.875 59.375 73 70 64.125 73.5625 64.125"></polygon>
            </g>
        </g>
    </g>
</svg>