<?xml version="1.0" encoding="UTF-8"?>
<svg width="96px" height="107px" viewBox="0 0 96 107" version="1.1" xmlns="http://www.w3.org/2000/svg" xmlns:xlink="http://www.w3.org/1999/xlink">
    <!-- Generator: Sketch 57.1 (83088) - https://sketch.com -->
    <title>XML</title>
    <desc>Created with Sketch.</desc>
    <g id="Page-1" stroke="none" stroke-width="1" fill="none" fill-rule="evenodd">
        <g id="Artboard" transform="translate(-1086.000000, -708.000000)">
            <g id="XML" transform="translate(1086.000000, 708.000000)">
                <polygon id="Shape-Copy-392" fill="#11907C" fill-rule="nonzero" points="95.7694398 106.362769 14 106.362769 14 0 70.2164899 0 95.7694398 25.3244688"></polygon>
                <polygon id="Shape-Copy-391" fill="#37D2BA" fill-rule="nonzero" points="92.2753025 28.0582454 68 28.0582454 68 4"></polygon>
                <rect id="Rectangle-5-Copy-321" fill="#0D6254" x="0" y="16" width="55" height="28" rx="4"></rect>
                <path d="M16.4038086,28.0810547 L18.6699219,23.9140625 L21.5336914,23.9140625 L18.0141602,29.9072266 L21.625,36 L18.7280273,36 L16.4038086,31.7666016 L14.0795898,36 L11.1826172,36 L14.793457,29.9072266 L11.2739258,23.9140625 L14.1376953,23.9140625 L16.4038086,28.0810547 Z M25.7003242,23.9140625 L28.8048164,32.6796875 L31.892707,23.9140625 L35.1632148,23.9140625 L35.1632148,36 L32.6646797,36 L32.6646797,32.6962891 L32.9137031,26.9936523 L29.6514961,36 L27.9415351,36 L24.6876289,27.0019531 L24.9366523,32.6962891 L24.9366523,36 L22.446418,36 L22.446418,23.9140625 L25.7003242,23.9140625 Z M39.3962539,33.9995117 L44.6838515,33.9995117 L44.6838515,36 L36.9060195,36 L36.9060195,23.9140625 L39.3962539,23.9140625 L39.3962539,33.9995117 Z" fill="#37D2BA"></path>
                <path d="M33,71.9765625 L47.9765625,86.953125 L53.671875,81.2578125 L44.3203125,71.9765625 L53.671875,62.625 L47.9765625,57 L33,71.9765625 Z M77.6484375,71.9765625 L62.671875,57 L56.9765625,62.625 L66.328125,71.9765625 L56.9765625,81.2578125 L62.671875,86.953125 L77.6484375,71.9765625 Z" id="-copy-3" fill="#37D2BA"></path>
            </g>
        </g>
    </g>
</svg>